<svg width="164" height="49" viewBox="0 0 164 49" fill="none" xmlns="http://www.w3.org/2000/svg">
<rect width="164" height="50" transform="matrix(1 0 0 -1 0 50)" fill="#1AC78D"/>
<g clip-path="url(#clip0_195_97)">
<path d="M67.3025 10.7964H70.2191C72.9534 10.7964 74.8903 12.3922 74.8903 14.6511C74.8903 16.91 72.9534 18.5171 70.2191 18.5171H67.3025V10.7964ZM70.5837 16.5392C71.7686 16.5392 72.6117 15.7525 72.6117 14.6511C72.6117 13.5498 71.7686 12.7743 70.5837 12.7743H69.5127V16.5392H70.5837Z" fill="white"/>
<path d="M76.0068 10.7964H78.2171V18.5171H76.0068V10.7964Z" fill="white"/>
<path d="M83.2073 13.9994H86.8759V17.281C86.067 18.1463 84.8707 18.652 83.6402 18.652C81.2933 18.652 79.3223 16.8202 79.3223 14.6512C79.3223 12.4822 81.2933 10.6616 83.6402 10.6616C84.8707 10.6616 86.067 11.1673 86.8759 12.0215L85.2467 13.4262C84.8593 12.9318 84.2669 12.6396 83.6402 12.6396C82.5351 12.6396 81.6009 13.5611 81.6009 14.6512C81.6009 15.7413 82.5351 16.6741 83.6402 16.6741C84.0276 16.6741 84.4036 16.5617 84.734 16.3594V15.6065H83.2073V13.9994Z" fill="white"/>
<path d="M88.1062 10.7964H90.3165V18.5171H88.1062V10.7964Z" fill="white"/>
<path d="M93.6092 12.7406H91.2964V10.7964H98.1322V12.7406H95.8194V18.5171H93.6092V12.7406Z" fill="white"/>
<path d="M103.555 17.4832H100.832L100.434 18.5171H97.9385L100.946 10.7964H103.441L106.449 18.5171H103.954L103.555 17.4832ZM102.929 15.8761L102.199 13.9993L101.459 15.8761H102.929Z" fill="white"/>
<path d="M113 16.5729V18.5171H107.144V10.7964H109.354V16.5729H113Z" fill="white"/>
<path d="M66.71 27.7195L67.9404 26.2698C68.7379 26.8879 69.6038 27.2138 70.5266 27.2138C71.1305 27.2138 71.4495 27.0115 71.4495 26.6743C71.4495 26.3035 71.176 26.2473 70.0937 26C68.3961 25.6179 67.0859 25.1796 67.0859 23.5726C67.0859 21.9655 68.3164 21.0327 70.1734 21.0327C71.5292 21.0327 72.5888 21.3923 73.4547 22.0779L72.3495 23.6175C71.6204 23.1006 70.8229 22.8421 70.1165 22.8421C69.581 22.8421 69.319 23.0556 69.319 23.3478C69.319 23.7411 69.5924 23.8648 70.7089 24.1008C72.5318 24.4829 73.6711 24.9661 73.6711 26.4383C73.6711 28.0679 72.4065 29.0231 70.4469 29.0231C69.0341 29.0231 67.7012 28.5848 66.71 27.7195Z" fill="white"/>
<path d="M76.8726 23.1117V23.9771H80.5981V25.9213H76.8726V26.944H80.9627V28.8882H74.6624V21.1675H80.9627V23.1117H76.8726Z" fill="white"/>
<path d="M84.2894 23.1117V23.9771H88.0149V25.9213H84.2894V26.944H88.3795V28.8882H82.0791V21.1675H88.3795V23.1117H84.2894Z" fill="white"/>
<path d="M89.4961 21.1675H92.4127C95.147 21.1675 97.0839 22.7633 97.0839 25.0222C97.0839 27.2811 95.147 28.8882 92.4127 28.8882H89.4961V21.1675ZM92.7773 26.9102C93.9622 26.9102 94.8053 26.1236 94.8053 25.0222C94.8053 23.9209 93.9622 23.1454 92.7773 23.1454H91.7063V26.9102H92.7773Z" fill="white"/>
<path d="M66.71 38.0344L67.9404 36.5847C68.7379 37.2028 69.6038 37.5287 70.5266 37.5287C71.1305 37.5287 71.4495 37.3264 71.4495 36.9893C71.4495 36.6184 71.176 36.5622 70.0937 36.315C68.3961 35.9329 67.0859 35.4946 67.0859 33.8875C67.0859 32.2804 68.3164 31.3477 70.1734 31.3477C71.5292 31.3477 72.5888 31.7073 73.4547 32.3928L72.3495 33.9325C71.6204 33.4155 70.8229 33.157 70.1165 33.157C69.581 33.157 69.319 33.3705 69.319 33.6627C69.319 34.0561 69.5924 34.1797 70.7089 34.4157C72.5318 34.7978 73.6711 35.2811 73.6711 36.7533C73.6711 38.3828 72.4065 39.3381 70.4469 39.3381C69.0341 39.3381 67.7012 38.8998 66.71 38.0344Z" fill="white"/>
<path d="M76.5535 33.4266H74.2407V31.4824H81.0766V33.4266H78.7638V39.2031H76.5535V33.4266Z" fill="white"/>
<path d="M81.9424 35.7754V31.4824H84.1526V35.6631C84.1526 36.652 84.7793 37.36 85.6679 37.36C86.5566 37.36 87.1832 36.652 87.1832 35.6631V31.4824H89.3934V35.7754C89.3934 37.8658 87.8554 39.338 85.6679 39.338C83.4804 39.338 81.9424 37.8658 81.9424 35.7754Z" fill="white"/>
<path d="M90.6809 31.4824H93.5975C96.3319 31.4824 98.2687 33.0783 98.2687 35.3372C98.2687 37.5961 96.3319 39.2031 93.5975 39.2031H90.6809V31.4824ZM93.9621 37.2252C95.147 37.2252 95.9901 36.4385 95.9901 35.3372C95.9901 34.2358 95.147 33.4604 93.9621 33.4604H92.8912V37.2252H93.9621Z" fill="white"/>
<path d="M99.3853 31.4824H101.596V39.2031H99.3853V31.4824Z" fill="white"/>
<path d="M102.701 35.3372C102.701 33.1683 104.649 31.3477 106.962 31.3477C109.274 31.3477 111.223 33.1683 111.223 35.3372C111.223 37.5062 109.274 39.3381 106.962 39.3381C104.649 39.3381 102.701 37.5062 102.701 35.3372ZM108.944 35.3372C108.944 34.2471 108.033 33.3256 106.962 33.3256C105.891 33.3256 104.979 34.2471 104.979 35.3372C104.979 36.4274 105.891 37.3601 106.962 37.3601C108.033 37.3601 108.944 36.4386 108.944 35.3372Z" fill="white"/>
<path d="M52.3604 15.2004C50.8774 15.2004 49.4096 15.4757 48.0387 16.0189C46.6696 16.5602 45.424 17.3544 44.3758 18.3565L43.9884 18.7273L43.9011 18.201C43.4435 15.4626 41.9795 12.9696 39.773 11.1677C37.5646 9.36584 34.7563 8.375 31.8529 8.375H25V13.215C25 16.3055 26.2836 19.2724 28.5698 21.462C30.8579 23.6516 33.9625 24.8822 37.2001 24.8822H41.0509V36.4127C39.8641 36.9671 39.0419 38.1583 39.0419 39.5388C39.0419 41.4512 40.6142 43.0021 42.5529 43.0021C44.4916 43.0021 46.0639 41.4512 46.0639 39.5388C46.0639 38.1565 45.2417 36.9671 44.053 36.4127V30.0012H48.7944C51.7965 30.0012 54.6732 28.8605 56.7942 26.832C58.9133 24.8035 60.1039 22.0539 60.1039 19.19V15.2023H52.3623L52.3604 15.2004ZM40.768 22.0258H37.202C34.7639 22.0258 32.4245 21.0986 30.7003 19.4485C28.9743 17.7964 28.0021 15.5544 28.0021 13.215V11.2295H31.8529C34.291 11.2295 36.6304 12.1567 38.3565 13.8068C40.0825 15.4589 41.0547 17.7009 41.0547 20.0403V22.0258H40.7718H40.768ZM57.1018 18.334V19.1881C57.1018 21.3009 56.2246 23.3275 54.6656 24.8185C53.1067 26.3094 50.9952 27.1467 48.7944 27.1467H44.053V26.0135C44.053 23.9007 44.9303 21.8741 46.4892 20.3831C48.0482 18.8922 50.1597 18.0549 52.3604 18.0549H57.1018V18.334Z" fill="white"/>
<path d="M41.1137 9.56608C41.2143 9.64849 41.3074 9.73465 41.4061 9.81894C41.784 9.78897 42.1657 9.77024 42.553 9.77024C46.0982 9.77024 49.349 11.0364 51.8668 13.1324C52.0263 13.1267 52.1859 13.1211 52.3473 13.1211H55.8126C52.6435 9.38065 47.8793 7 42.5511 7C40.9599 7 39.4218 7.21727 37.9597 7.61249C39.0876 8.12383 40.151 8.77752 41.1137 9.5642V9.56608Z" fill="white"/>
<path d="M58.2602 28.3209C57.4323 29.1132 56.5132 29.7875 55.5296 30.3381C53.9536 33.483 51.2364 35.976 47.9153 37.289C48.2134 37.9802 48.3786 38.7406 48.3786 39.5386C48.3786 39.7259 48.3691 39.9113 48.3501 40.093C54.1796 38.0439 58.5659 32.9922 59.5951 26.8262C59.1925 27.3544 58.7463 27.8563 58.2602 28.3209Z" fill="white"/>
<path d="M28.0857 24.039C28.0857 23.9622 28.0895 23.8873 28.0914 23.8105C27.7515 23.5389 27.4211 23.2542 27.104 22.9508C26.523 22.3945 25.9989 21.7895 25.5299 21.1489C25.3666 22.0892 25.2773 23.0538 25.2773 24.039C25.2773 31.4432 30.0662 37.7404 36.7521 40.0911C36.735 39.9075 36.7236 39.724 36.7236 39.5366C36.7236 38.7387 36.8888 37.9783 37.1869 37.2871C31.8587 35.1799 28.0838 30.0384 28.0838 24.039H28.0857Z" fill="white"/>
</g>
<defs>
<clipPath id="clip0_195_97">
<rect width="88" height="36" fill="white" transform="translate(25 7)"/>
</clipPath>
</defs>
</svg>
