<svg width="53" height="22" viewBox="0 0 53 22" fill="none" xmlns="http://www.w3.org/2000/svg">
<g opacity="0.3">
<g clip-path="url(#clip0_30_1066)">
<path d="M25.4777 2.28662H27.2343C28.8811 2.28662 30.0476 3.24775 30.0476 4.60822C30.0476 5.96869 28.8811 6.93659 27.2343 6.93659H25.4777V2.28662ZM27.4538 5.74533C28.1675 5.74533 28.6752 5.27154 28.6752 4.60822C28.6752 3.94491 28.1675 3.47788 27.4538 3.47788H26.8088V5.74533H27.4538Z" fill="white"/>
<path d="M30.72 2.28662H32.0511V6.93659H30.72V2.28662Z" fill="white"/>
<path d="M35.0566 4.21557H37.2661V6.19198C36.7789 6.71316 36.0585 7.01774 35.3174 7.01774C33.9039 7.01774 32.7168 5.91447 32.7168 4.60815C32.7168 3.30182 33.9039 2.20532 35.3174 2.20532C36.0585 2.20532 36.7789 2.50991 37.2661 3.02431L36.2849 3.87038C36.0516 3.57256 35.6948 3.39658 35.3174 3.39658C34.6518 3.39658 34.0891 3.9516 34.0891 4.60815C34.0891 5.26469 34.6518 5.82648 35.3174 5.82648C35.5507 5.82648 35.7771 5.75879 35.9761 5.63696V5.18347H35.0566V4.21557Z" fill="white"/>
<path d="M38.0072 2.28662H39.3384V6.93659H38.0072V2.28662Z" fill="white"/>
<path d="M41.3214 3.45757H39.9285V2.28662H44.0455V3.45757H42.6526V6.93659H41.3214V3.45757Z" fill="white"/>
<path d="M47.3117 6.31389H45.6717L45.4316 6.93659H43.9288L45.7403 2.28662H47.243L49.0545 6.93659H47.5518L47.3117 6.31389ZM46.9343 5.34599L46.4951 4.21565L46.0491 5.34599H46.9343Z" fill="white"/>
<path d="M53.0001 5.76564V6.93659H49.4731V2.28662H50.8043V5.76564H53.0001Z" fill="white"/>
<path d="M25.1208 12.4787L25.8619 11.6055C26.3422 11.9778 26.8637 12.1741 27.4195 12.1741C27.7832 12.1741 27.9753 12.0523 27.9753 11.8492C27.9753 11.6259 27.8106 11.592 27.1588 11.4431C26.1364 11.213 25.3473 10.949 25.3473 9.9811C25.3473 9.0132 26.0884 8.45142 27.2068 8.45142C28.0234 8.45142 28.6615 8.66801 29.183 9.08089L28.5174 10.0082C28.0783 9.69682 27.5979 9.54115 27.1725 9.54115C26.85 9.54115 26.6922 9.66975 26.6922 9.84573C26.6922 10.0826 26.8569 10.1571 27.5293 10.2992C28.6272 10.5294 29.3134 10.8204 29.3134 11.7071C29.3134 12.6885 28.5517 13.2638 27.3715 13.2638C26.5206 13.2638 25.7178 12.9999 25.1208 12.4787Z" fill="white"/>
<path d="M31.2415 9.70367V10.2248H33.4852V11.3958H31.2415V12.0117H33.7048V13.1827H29.9103V8.53271H33.7048V9.70367H31.2415Z" fill="white"/>
<path d="M35.7085 9.70367V10.2248H37.9523V11.3958H35.7085V12.0117H38.1719V13.1827H34.3773V8.53271H38.1719V9.70367H35.7085Z" fill="white"/>
<path d="M38.8444 8.53271H40.601C42.2478 8.53271 43.4143 9.49384 43.4143 10.8543C43.4143 12.2148 42.2478 13.1827 40.601 13.1827H38.8444V8.53271ZM40.8205 11.9914C41.5342 11.9914 42.0419 11.5176 42.0419 10.8543C42.0419 10.191 41.5342 9.72397 40.8205 9.72397H40.1755V11.9914H40.8205Z" fill="white"/>
<path d="M25.1208 18.6911L25.8619 17.8179C26.3422 18.1902 26.8637 18.3865 27.4195 18.3865C27.7832 18.3865 27.9753 18.2647 27.9753 18.0616C27.9753 17.8383 27.8106 17.8044 27.1588 17.6555C26.1364 17.4254 25.3473 17.1614 25.3473 16.1935C25.3473 15.2256 26.0884 14.6638 27.2068 14.6638C28.0234 14.6638 28.6615 14.8804 29.183 15.2933L28.5174 16.2206C28.0783 15.9092 27.5979 15.7535 27.1725 15.7535C26.85 15.7535 26.6922 15.8822 26.6922 16.0581C26.6922 16.295 26.8569 16.3695 27.5293 16.5116C28.6272 16.7418 29.3134 17.0328 29.3134 17.9195C29.3134 18.9009 28.5517 19.4762 27.3715 19.4762C26.5206 19.4762 25.7178 19.2123 25.1208 18.6911Z" fill="white"/>
<path d="M31.0494 15.9161H29.6565V14.7451H33.7735V15.9161H32.3806V19.3951H31.0494V15.9161Z" fill="white"/>
<path d="M34.2949 17.3307V14.7451H35.6261V17.263C35.6261 17.8586 36.0035 18.2851 36.5387 18.2851C37.0739 18.2851 37.4513 17.8586 37.4513 17.263V14.7451H38.7825V17.3307C38.7825 18.5896 37.8562 19.4763 36.5387 19.4763C35.2213 19.4763 34.2949 18.5896 34.2949 17.3307Z" fill="white"/>
<path d="M39.558 14.7451H41.3146C42.9614 14.7451 44.1279 15.7062 44.1279 17.0667C44.1279 18.4272 42.9614 19.3951 41.3146 19.3951H39.558V14.7451ZM41.5342 18.2038C42.2478 18.2038 42.7555 17.73 42.7555 17.0667C42.7555 16.4034 42.2478 15.9364 41.5342 15.9364H40.8892V18.2038H41.5342Z" fill="white"/>
<path d="M44.8003 14.7451H46.1315V19.3951H44.8003V14.7451Z" fill="white"/>
<path d="M46.797 17.0666C46.797 15.7603 47.9704 14.6638 49.3633 14.6638C50.7562 14.6638 51.9296 15.7603 51.9296 17.0666C51.9296 18.373 50.7562 19.4762 49.3633 19.4762C47.9704 19.4762 46.797 18.373 46.797 17.0666ZM50.5572 17.0666C50.5572 16.4101 50.0083 15.8551 49.3633 15.8551C48.7183 15.8551 48.1693 16.4101 48.1693 17.0666C48.1693 17.7232 48.7183 18.285 49.3633 18.285C50.0083 18.285 50.5572 17.73 50.5572 17.0666Z" fill="white"/>
<path d="M16.4784 4.93887C15.5853 4.93887 14.7013 5.1047 13.8756 5.43185C13.051 5.75786 12.3008 6.23617 11.6695 6.8397L11.4362 7.06306L11.3836 6.74607C11.108 5.0968 10.2263 3.59532 8.89738 2.5101C7.56734 1.42488 5.87593 0.828125 4.12733 0.828125H0V3.7431C0 5.60444 0.773088 7.39133 2.15001 8.71006C3.52807 10.0288 5.39789 10.7699 7.34777 10.7699H9.66703V17.7144C8.95227 18.0484 8.45708 18.7658 8.45708 19.5972C8.45708 20.749 9.404 21.6831 10.5716 21.6831C11.7393 21.6831 12.6862 20.749 12.6862 19.5972C12.6862 18.7647 12.191 18.0484 11.4751 17.7144V13.853H14.3307C16.1388 13.853 17.8714 13.166 19.1488 11.9443C20.4251 10.7226 21.1421 9.06654 21.1421 7.34169V4.94H16.4796L16.4784 4.93887ZM9.49663 9.04962H7.34891C5.8805 9.04962 4.47156 8.49121 3.43315 7.49737C2.3936 6.5024 1.80807 5.15208 1.80807 3.7431V2.54733H4.12733C5.59574 2.54733 7.00468 3.10573 8.04423 4.09958C9.08379 5.09455 9.66932 6.44487 9.66932 7.85385V9.04962H9.49892H9.49663ZM19.3341 6.82616V7.34057C19.3341 8.61305 18.8057 9.83364 17.8668 10.7316C16.9279 11.6295 15.6562 12.1338 14.3307 12.1338H11.4751V11.4513C11.4751 10.1788 12.0035 8.95824 12.9424 8.06029C13.8813 7.16233 15.153 6.65807 16.4784 6.65807H19.3341V6.82616Z" fill="white"/>
<path d="M9.70485 1.54548C9.76547 1.59511 9.8215 1.64701 9.88097 1.69777C10.1086 1.67972 10.3384 1.66844 10.5717 1.66844C12.7069 1.66844 14.6647 2.43103 16.1812 3.69335C16.2772 3.68997 16.3733 3.68659 16.4705 3.68659H18.5576C16.6489 1.4338 13.7796 0 10.5706 0C9.61222 0 8.68589 0.130858 7.8053 0.368884C8.48461 0.676852 9.12504 1.07055 9.70485 1.54435V1.54548Z" fill="white"/>
<path d="M20.0317 12.8409C19.5331 13.3181 18.9796 13.7242 18.3872 14.0558C17.438 15.9499 15.8015 17.4514 13.8013 18.2422C13.9808 18.6584 14.0803 19.1164 14.0803 19.597C14.0803 19.7098 14.0746 19.8215 14.0632 19.9309C17.5741 18.6968 20.2158 15.6543 20.8357 11.9407C20.5932 12.2588 20.3245 12.5611 20.0317 12.8409Z" fill="white"/>
<path d="M1.85841 10.2621C1.85841 10.2159 1.8607 10.1707 1.86184 10.1245C1.65713 9.96092 1.45814 9.78945 1.26716 9.6067C0.917208 9.27166 0.601568 8.90729 0.319094 8.52148C0.220742 9.08778 0.166992 9.66875 0.166992 10.2621C0.166992 14.7214 3.05121 18.5141 7.0779 19.9298C7.06761 19.8193 7.06074 19.7087 7.06074 19.5959C7.06074 19.1153 7.16024 18.6573 7.33979 18.2411C4.13078 16.972 1.85726 13.8754 1.85726 10.2621H1.85841Z" fill="white"/>
</g>
</g>
<defs>
<clipPath id="clip0_30_1066">
<rect width="53" height="21.6818" fill="white"/>
</clipPath>
</defs>
</svg>
