<svg width="52" height="49" viewBox="0 0 52 49" fill="none" xmlns="http://www.w3.org/2000/svg">
<path d="M4.09114 46.5078C3.8729 46.5078 3.65445 46.4244 3.48784 46.2578C3.15461 45.9246 3.15461 45.3844 3.48784 45.0512L6.04784 42.4912C6.38106 42.158 6.92122 42.158 7.25445 42.4912C7.58767 42.8244 7.58767 43.3646 7.25445 43.6978L4.69445 46.2578C4.52784 46.4246 4.30938 46.5078 4.09114 46.5078Z" fill="#D53232"/>
<path d="M6.65114 46.5078C6.4329 46.5078 6.21445 46.4244 6.04784 46.2578L3.48784 43.6978C3.15461 43.3646 3.15461 42.8244 3.48784 42.4912C3.82106 42.158 4.36122 42.158 4.69445 42.4912L7.25445 45.0512C7.58767 45.3844 7.58767 45.9246 7.25445 46.2578C7.08783 46.4246 6.86938 46.5078 6.65114 46.5078Z" fill="#D53232"/>
<path d="M50.3469 14.5083C50.0086 14.5083 49.6877 14.305 49.5544 13.9715C48.3335 10.9189 42.6285 10.2435 40.5327 10.2412C40.3068 10.2407 40.0903 10.1511 39.9303 9.99114C35.9102 5.97151 33.0703 5.09535 33.042 5.08703C32.752 5.00127 32.5253 4.76746 32.4527 4.47498L31.5994 1.06165C31.4844 0.604047 31.7628 0.1409 32.2202 0.0265538C32.6761 -0.0901395 33.1401 0.19082 33.2544 0.647354L33.9977 3.62101C35.0228 4.03402 37.5802 5.29183 40.8918 8.54133C42.5675 8.59722 49.4383 9.08639 51.1392 13.3371C51.3142 13.775 51.1008 14.2712 50.6635 14.4466C50.5603 14.4882 50.4527 14.5083 50.3469 14.5083Z" fill="#D53232"/>
<path d="M0.853575 14.5082C0.747761 14.5082 0.640241 14.4882 0.536988 14.447C0.0994411 14.2717 -0.113892 13.7754 0.0612545 13.3375C1.76792 9.07251 9.00952 8.59422 10.7354 8.54131C13.9862 5.33961 16.2703 4.07497 17.1962 3.64723L17.9463 0.647552C18.0595 0.190379 18.5212 -0.0907948 18.9805 0.0267519C19.4381 0.140885 19.7163 0.604246 19.6013 1.06185L18.748 4.47518C18.678 4.75806 18.4672 4.98526 18.1905 5.07763C18.1713 5.08424 15.7214 5.96723 11.6971 9.99134C11.5371 10.1513 11.3203 10.2409 11.0946 10.2414C8.88046 10.2439 2.86723 10.9185 1.64632 13.9717C1.51277 14.3049 1.19192 14.5082 0.853575 14.5082Z" fill="#D53232"/>
<path d="M41.8127 28.5878H30.2612C28.5745 28.5878 27.0454 27.5474 26.3661 25.9369C26.352 25.9028 26.3403 25.8678 26.3303 25.832L25.622 23.2641L24.9137 25.832C24.9037 25.8678 24.892 25.9028 24.8779 25.9369C24.1986 27.5474 22.6695 28.5878 20.9829 28.5878H10.2402C10.006 28.5878 9.782 28.4916 9.62115 28.3216L6.3836 24.9082C6.05934 24.5665 6.07363 24.0261 6.41518 23.702C6.75758 23.3776 7.29859 23.3921 7.62179 23.734L10.6068 26.8811H20.9826C21.965 26.8811 22.8634 26.2708 23.2843 25.3215L24.7994 19.8277C24.9011 19.4574 25.2378 19.2009 25.6218 19.2009C26.0058 19.2009 26.3426 19.4571 26.4442 19.8277L27.9593 25.3215C28.3802 26.2706 29.2785 26.8811 30.2609 26.8811H41.446L44.4318 23.7336C44.7552 23.3919 45.2969 23.3769 45.6384 23.702C45.9802 24.0265 45.9943 24.5667 45.67 24.9087L42.4316 28.322C42.2712 28.4916 42.047 28.5878 41.8127 28.5878Z" fill="#D53232"/>
<path d="M12.6244 48.6433C12.1527 48.6433 11.7711 48.2612 11.7711 47.79V43.7279L9.90933 40.0707C7.47349 35.7324 6.85674 30.1923 6.83178 29.9587C6.78762 29.5482 7.04341 29.1653 7.44021 29.049C7.83595 28.9319 8.25856 29.1165 8.44352 29.4862C8.99691 30.5929 11.3668 31.4032 12.1536 31.5999C12.3844 31.6577 12.5803 31.8087 12.6953 32.0169C12.8094 32.2258 12.832 32.472 12.7561 32.6977C12.1961 34.379 14.3219 37.0089 15.1102 37.7976C15.4434 38.1309 15.4434 38.671 15.1102 39.0042C14.777 39.3375 14.2368 39.3375 13.9036 39.0042C13.5535 38.6542 10.7669 35.7737 10.966 33.0266C10.4143 32.8438 9.65354 32.5516 8.92522 32.1379C9.32778 34.0841 10.086 36.8991 11.4144 39.2658L13.3852 43.1359C13.446 43.2558 13.4778 43.3885 13.4778 43.5229V47.7895C13.4778 48.2612 13.0961 48.6433 12.6244 48.6433Z" fill="#D53232"/>
<path d="M38.2245 48.6433C37.7528 48.6433 37.3711 48.2612 37.3711 47.79V43.5233C37.3711 43.3646 37.4153 43.2086 37.4995 43.0738L39.8803 39.2342C41.1896 36.9012 42.1937 34.13 42.8171 32.1718C41.9047 32.6043 40.9312 32.8989 40.2379 33.0768C40.4005 35.8085 37.6455 38.6567 37.2971 39.0047C36.9639 39.3392 36.4246 39.3373 36.0913 39.0051C35.7581 38.6721 35.7573 38.1321 36.0896 37.7985C36.9346 36.9501 39.0055 34.3807 38.4446 32.6981C38.3672 32.466 38.393 32.2119 38.5154 32.0003C38.6387 31.7887 38.8463 31.64 39.0863 31.5916C40.6889 31.2694 43.1522 30.4033 43.6105 29.4866C43.8055 29.0983 44.2622 28.9187 44.6688 29.0674C45.0771 29.2178 45.3063 29.6511 45.2022 30.0733C45.1446 30.3045 43.773 35.7842 41.3496 40.1016L39.078 43.7667V47.7904C39.0778 48.2612 38.6961 48.6433 38.2245 48.6433Z" fill="#D53232"/>
<path d="M25.4244 47.3611C25.8957 47.3611 26.2778 46.9791 26.2778 46.5078C26.2778 46.0365 25.8957 45.6545 25.4244 45.6545C24.9532 45.6545 24.5711 46.0365 24.5711 46.5078C24.5711 46.9791 24.9532 47.3611 25.4244 47.3611Z" fill="#D53232"/>
<path d="M25.4245 14.0812C25.2062 14.0812 24.9878 13.9978 24.8212 13.8311L23.2903 12.3003L15.8529 10.6474C15.3929 10.5452 15.1028 10.0895 15.2045 9.62954C15.3069 9.16874 15.7671 8.88202 16.2228 8.98165L23.9028 10.6883C24.0611 10.7233 24.2061 10.8029 24.3211 10.9179L25.4245 12.0212L26.5278 10.9179C26.6428 10.8029 26.7879 10.7233 26.9462 10.6883L34.6262 8.98165C35.0861 8.88117 35.5429 9.16874 35.6444 9.62954C35.7462 10.0895 35.4561 10.5454 34.9961 10.6474L27.5587 12.3003L26.0278 13.8311C25.8612 13.998 25.6427 14.0812 25.4245 14.0812Z" fill="#D53232"/>
<path d="M25.4244 44.8012C24.9528 44.8012 24.5711 44.4191 24.5711 43.9478V37.1212C24.5711 36.6499 24.9528 36.2678 25.4244 36.2678C25.8961 36.2678 26.2778 36.6499 26.2778 37.1212V43.9478C26.2778 44.4191 25.8961 44.8012 25.4244 44.8012Z" fill="#D53232"/>
</svg>
