<svg width="40" height="54" viewBox="0 0 40 54" fill="none" xmlns="http://www.w3.org/2000/svg">
<path d="M0.887635 16.76C1.35892 16.76 1.74097 16.378 1.74097 15.9067C1.74097 15.4354 1.35892 15.0533 0.887635 15.0533C0.416352 15.0533 0.0343018 15.4354 0.0343018 15.9067C0.0343018 16.378 0.416352 16.76 0.887635 16.76Z" fill="#D53232"/>
<path d="M12.1028 50.6132C11.6753 50.6132 11.252 50.5083 10.8644 50.3016C10.2444 49.9698 9.79111 49.4166 9.58695 48.7432C9.38279 48.0707 9.45361 47.3582 9.78535 46.7382C10.1171 46.1183 10.6703 45.665 11.3429 45.4608C12.0162 45.2558 12.727 45.3266 13.3478 45.6592C13.9677 45.9909 14.4211 46.5441 14.6252 47.2168C14.8294 47.8894 14.7586 48.6017 14.4268 49.2217C14.0951 49.8416 13.5419 50.2949 12.8693 50.4991C12.6169 50.5759 12.3594 50.6132 12.1028 50.6132ZM12.1068 47.0542C12.0168 47.0542 11.9259 47.0674 11.8376 47.0943C11.601 47.166 11.4067 47.326 11.2902 47.5434C11.1735 47.7616 11.1485 48.0116 11.2202 48.2484C11.2919 48.4852 11.4519 48.68 11.6693 48.7967C11.8892 48.9134 12.1384 48.9366 12.3744 48.8658C12.6109 48.7941 12.8053 48.6341 12.9218 48.4168C13.0385 48.1985 13.0634 47.9485 12.9917 47.7117C12.9201 47.4749 12.7601 47.2808 12.5427 47.1643C12.4061 47.0909 12.257 47.0542 12.1068 47.0542Z" fill="#D53232"/>
<path d="M39.1119 53.4533C38.6402 53.4533 38.2585 53.0717 38.2585 52.6V51.135C36.4128 50.5426 34.6101 49.4117 33.2303 47.9666C31.652 46.3207 30.6485 44.5441 30.1785 43.6042C30.022 43.64 29.8419 43.6799 29.6394 43.7234C26.7812 44.3425 21.2595 45.221 16.417 44.1492C13.0221 43.3959 8.84371 41.2202 3.99785 37.6818C3.73865 37.4909 3.11529 37.2517 2.66025 37.0777C2.07443 36.8534 1.75785 36.7276 1.53598 36.5501C1.09609 36.2051 0.840088 35.6775 0.840088 35.1067V33.4766C0.840088 31.7665 5.75849 8.54581 6.35262 6.75488C6.55849 6.10229 7.21769 5.79061 7.34761 5.73579L18.5327 0.624106C18.8928 0.459199 19.3218 0.564159 19.5644 0.879892L23.3702 5.83733C23.9827 6.67659 23.9285 7.82325 23.2544 8.58059L19.8319 12.4131C19.0485 13.2948 17.7252 13.3872 16.8185 12.6247L16.0002 11.8723C15.526 12.1849 14.9203 12.414 14.3377 12.5797L15.8044 23.6163C17.5093 22.2262 19.7034 21.4529 22.0452 21.4529C24.2445 21.4529 26.3251 22.1362 28.0036 23.3947C29.7418 21.1233 32.6037 19.7467 35.6985 19.7467C36.9926 19.7467 38.2468 19.9818 39.4244 20.4458C39.8637 20.619 40.0785 21.1141 39.9061 21.5525C39.7329 21.9918 39.236 22.2043 38.7993 22.0342C37.821 21.6483 36.7776 21.4533 35.6985 21.4533C32.8452 21.4533 30.246 22.8466 28.9152 25.0892C28.7836 25.3108 28.5585 25.4608 28.3027 25.4975C28.0535 25.5399 27.7894 25.4542 27.6002 25.2784C26.1293 23.9126 24.1559 23.16 22.0452 23.16C19.5769 23.16 17.3169 24.1851 15.8428 25.9726C15.6277 26.235 15.2753 26.3451 14.9493 26.2501C14.6236 26.1567 14.3836 25.8794 14.3385 25.5427L12.6895 13.131L12.1687 12.766C11.8829 12.5652 11.7487 12.2109 11.8278 11.8719C11.9078 11.5318 12.1871 11.2752 12.532 11.2227C13.7303 11.0427 15.012 10.616 15.2211 10.3286C15.3335 10.0786 15.5528 9.90944 15.8218 9.8544C16.0851 9.80021 16.3626 9.88768 16.5642 10.0735L17.946 11.3443C18.1094 11.4811 18.3951 11.4619 18.5568 11.2793L21.9801 7.44501C22.1235 7.28416 22.1335 7.0384 22.0042 6.86005L18.6242 2.45835L8.03859 7.29568C8.01022 7.30891 7.9778 7.32896 7.95518 7.3456C7.2019 9.77973 2.57598 32.1164 2.54676 33.4789V35.1067C2.54676 35.1517 2.56254 35.1867 2.59518 35.2116C2.66345 35.2517 3.01438 35.3857 3.27017 35.4841C3.87689 35.7157 4.56425 35.979 5.00692 36.305C9.65865 39.7017 13.6228 41.7808 16.7861 42.4825C21.4786 43.5216 27.0886 42.5292 29.2802 42.0549C30.001 41.9007 30.4177 41.7874 30.4303 41.784C30.8495 41.6748 31.2787 41.8849 31.4436 42.2815C31.4536 42.3047 32.4578 44.6947 34.4627 46.7864C35.7886 48.174 37.5577 49.2223 39.3194 49.6647C39.6994 49.7597 39.9652 50.1014 39.9652 50.4923V52.6C39.9652 53.0717 39.5836 53.4533 39.1119 53.4533ZM7.97609 7.28075C7.97523 7.28331 7.97438 7.28565 7.97353 7.28907C7.97438 7.28587 7.97523 7.28331 7.97609 7.28075Z" fill="#D53232"/>
<path d="M38.3844 45.5724C38.2952 45.5724 38.2043 45.5583 38.1143 45.5282C36.3601 44.9441 35.0743 43.1973 34.4768 42.2365L30.9235 43.4198C30.4719 43.5698 29.9936 43.3272 29.8442 42.8807C29.6951 42.4332 29.9368 41.95 30.3833 41.8015L34.6001 40.3965C35.005 40.2606 35.4425 40.4449 35.6326 40.8231C35.9827 41.5182 37.2085 43.4282 38.6543 43.9099C39.101 44.0581 39.3427 44.5415 39.1934 44.9891C39.0752 45.3467 38.7419 45.5724 38.3844 45.5724Z" fill="#D53232"/>
<path d="M13.8536 28.6817C13.7661 28.6817 13.6778 28.6685 13.5904 28.6401C13.1419 28.4942 12.8962 28.0133 13.0421 27.5651C13.3563 26.5976 13.853 25.6959 14.5205 24.8844C14.8187 24.5202 15.3572 24.466 15.7213 24.7668C16.0855 25.0659 16.138 25.6035 15.8389 25.9677C15.3081 26.6134 14.913 27.3285 14.6656 28.0918C14.5486 28.4524 14.2135 28.6817 13.8536 28.6817Z" fill="#D53232"/>
<path d="M30.0963 28.2883C29.7553 28.2883 29.4339 28.0824 29.3012 27.7458C28.9396 26.8199 28.367 25.9892 27.6011 25.275C27.2561 24.9541 27.2369 24.4142 27.5587 24.0692C27.8795 23.7243 28.4212 23.7059 28.7644 24.0268C29.7052 24.9034 30.441 25.9743 30.8911 27.1244C31.0629 27.5628 30.8461 28.0577 30.4069 28.2303C30.3053 28.27 30.1995 28.2883 30.0963 28.2883Z" fill="#D53232"/>
<path d="M21.271 41.4324C15.9652 41.4324 13.6318 38.5866 12.9602 37.5549L9.89185 36.7873C9.43425 36.6732 9.15606 36.2098 9.27105 35.7531C9.38433 35.2948 9.84854 35.0164 10.3053 35.1323L13.7186 35.9856C13.9603 36.0456 14.1636 36.209 14.2752 36.4315C14.3687 36.6107 16.7061 40.9324 24.4378 39.3898C24.9045 39.2923 25.3502 39.5973 25.4419 40.059C25.5345 40.5215 25.2344 40.9706 24.7727 41.0632C23.4829 41.3217 22.3187 41.4324 21.271 41.4324Z" fill="#D53232"/>
<path d="M21.1918 38.52C21.1161 38.52 21.0393 38.51 20.9644 38.4891C20.5945 38.3867 20.3385 38.0498 20.3385 37.6667V33.4H17.7785C17.4634 33.4 17.1743 33.2268 17.0261 32.9492C16.8778 32.6717 16.8945 32.335 17.0685 32.0735L22.1885 24.3935C22.397 24.081 22.7878 23.941 23.146 24.0502C23.5061 24.1595 23.7518 24.491 23.7518 24.8669V28.2802H26.3118C26.6193 28.2802 26.9028 28.4451 27.0542 28.7126C27.2059 28.981 27.2017 29.3093 27.0434 29.5726L21.9234 38.1059C21.767 38.3675 21.486 38.52 21.1918 38.52ZM19.3727 31.6933H21.1918C21.6635 31.6933 22.0452 32.075 22.0452 32.5467V34.5859L24.8044 29.9867H22.8985C22.4268 29.9867 22.0452 29.605 22.0452 29.1333V27.685L19.3727 31.6933Z" fill="#D53232"/>
</svg>
