<svg width="47" height="49" viewBox="0 0 47 49" fill="none" xmlns="http://www.w3.org/2000/svg">
<path d="M32.1828 48.64H2.80384C1.25781 48.64 0 47.3822 0 45.8362V2.80384C0 1.25781 1.25781 0 2.80384 0H32.183C33.7289 0 34.9867 1.25781 34.9867 2.80384V45.8364C34.9867 47.3822 33.7289 48.64 32.1828 48.64ZM2.80384 1.70667C2.19883 1.70667 1.70667 2.19883 1.70667 2.80384V45.8364C1.70667 46.4414 2.19883 46.9335 2.80384 46.9335H32.183C32.7881 46.9335 33.2802 46.4414 33.2802 45.8364V2.80384C33.2802 2.19883 32.7881 1.70667 32.183 1.70667H2.80384Z" fill="#D53232"/>
<path d="M42.6666 38.4C42.4484 38.4 42.23 38.3166 42.0633 38.15L39.5033 35.59C39.1701 35.2568 39.1701 34.7166 39.5033 34.3834C39.8366 34.0501 40.3767 34.0501 40.71 34.3834L43.27 36.9434C43.6032 37.2766 43.6032 37.8168 43.27 38.15C43.1033 38.3166 42.8849 38.4 42.6666 38.4Z" fill="#D53232"/>
<path d="M40.1066 38.4C39.8884 38.4 39.67 38.3166 39.5033 38.15C39.1701 37.8168 39.1701 37.2766 39.5033 36.9434L42.0633 34.3834C42.3966 34.0501 42.9367 34.0501 43.27 34.3834C43.6032 34.7166 43.6032 35.2568 43.27 35.59L40.71 38.15C40.5433 38.3166 40.3249 38.4 40.1066 38.4Z" fill="#D53232"/>
<path d="M26.7459 46.08H3.41339C2.94214 46.08 2.56006 45.6979 2.56006 45.2267V3.41333C2.56006 2.94208 2.94214 2.56 3.41339 2.56H31.5734C32.0446 2.56 32.4267 2.94208 32.4267 3.41333V16.8241C32.4267 17.2954 32.0446 17.6774 31.5734 17.6774C31.1021 17.6774 30.7201 17.2954 30.7201 16.8241V4.26666H4.26673V44.3733H26.4276L30.7201 40.6554V21.0336C30.7201 20.5623 31.1021 20.1803 31.5734 20.1803C32.0446 20.1803 32.4267 20.5623 32.4267 21.0336V41.0453C32.4267 41.2928 32.3192 41.5283 32.1321 41.6902L27.3046 45.8716C27.1497 46.0062 26.9513 46.08 26.7459 46.08Z" fill="#D53232"/>
<path d="M26.4533 46.08C26.3304 46.08 26.2071 46.0533 26.0913 45.9996C25.7918 45.8592 25.6 45.558 25.6 45.2267V40.96C25.6 40.4887 25.9821 40.1067 26.4533 40.1067H31.5733C31.9326 40.1067 32.2534 40.3317 32.3759 40.6696C32.4979 41.0076 32.3955 41.3854 32.1197 41.6156L26.9997 45.8822C26.8433 46.0126 26.6491 46.08 26.4533 46.08ZM27.3066 41.8133V43.4046L29.2162 41.8133H27.3066Z" fill="#D53232"/>
<path d="M16.2134 27.3067H8.53339C8.06213 27.3067 7.68005 26.9246 7.68005 26.4533C7.68005 25.9821 8.06213 25.6 8.53339 25.6H16.2134C16.6846 25.6 17.0667 25.9821 17.0667 26.4533C17.0667 26.9246 16.6846 27.3067 16.2134 27.3067Z" fill="#D53232"/>
<path d="M21.3334 29.8667H8.53339C8.06213 29.8667 7.68005 29.4846 7.68005 29.0133C7.68005 28.5421 8.06213 28.16 8.53339 28.16H21.3334C21.8046 28.16 22.1867 28.5421 22.1867 29.0133C22.1867 29.4846 21.8046 29.8667 21.3334 29.8667Z" fill="#D53232"/>
<path d="M17.0667 34.9867H8.53339C8.06213 34.9867 7.68005 34.6046 7.68005 34.1333C7.68005 33.6621 8.06213 33.28 8.53339 33.28H17.0667C17.538 33.28 17.9201 33.6621 17.9201 34.1333C17.9201 34.6046 17.538 34.9867 17.0667 34.9867Z" fill="#D53232"/>
<path d="M12.8001 37.5467H8.53339C8.06213 37.5467 7.68005 37.1646 7.68005 36.6933C7.68005 36.2221 8.06213 35.84 8.53339 35.84H12.8001C13.2713 35.84 13.6534 36.2221 13.6534 36.6933C13.6534 37.1646 13.2713 37.5467 12.8001 37.5467Z" fill="#D53232"/>
<path d="M24.7468 37.5467H16.2134C15.7422 37.5467 15.3601 37.1646 15.3601 36.6933C15.3601 36.2221 15.7422 35.84 16.2134 35.84H24.7468C25.218 35.84 25.6001 36.2221 25.6001 36.6933C25.6001 37.1646 25.218 37.5467 24.7468 37.5467Z" fill="#D53232"/>
<path d="M21.3334 40.1067H8.53339C8.06213 40.1067 7.68005 39.7246 7.68005 39.2534C7.68005 38.7821 8.06213 38.4 8.53339 38.4H21.3334C21.8046 38.4 22.1867 38.7821 22.1867 39.2534C22.1867 39.7246 21.8046 40.1067 21.3334 40.1067Z" fill="#D53232"/>
<path d="M23.04 6.82667H11.9467C11.5791 6.82667 11.2533 6.59157 11.1371 6.24341L9.4304 1.12341C9.34378 0.862933 9.38752 0.577066 9.54794 0.35456C9.70837 0.131626 9.96586 0 10.24 0H24.7467C25.0208 0 25.2783 0.131626 25.4387 0.35456C25.5991 0.577066 25.6429 0.862933 25.5563 1.12341L23.8496 6.24341C23.7333 6.59157 23.4076 6.82667 23.04 6.82667ZM12.5617 5.12H22.425L23.5629 1.70667H11.4238L12.5617 5.12Z" fill="#D53232"/>
<path d="M38.4 17.92H23.8934C23.4221 17.92 23.04 17.5379 23.04 17.0667V14.5067C23.04 14.0354 23.4221 13.6533 23.8934 13.6533H38.4C38.8713 13.6533 39.2534 14.0354 39.2534 14.5067V17.0667C39.2534 17.5379 38.8713 17.92 38.4 17.92ZM24.7467 16.2133H37.5467V15.36H24.7467V16.2133Z" fill="#D53232"/>
<path d="M23.8934 22.1867H20.48C20.0088 22.1867 19.6267 21.8046 19.6267 21.3333V10.24C19.6267 9.76874 20.0088 9.38666 20.48 9.38666H23.8934C24.3646 9.38666 24.7467 9.76874 24.7467 10.24V21.3333C24.7467 21.8046 24.3646 22.1867 23.8934 22.1867ZM21.3334 20.48H23.04V11.0933H21.3334V20.48Z" fill="#D53232"/>
<path d="M41.8133 22.1867H38.4C37.9287 22.1867 37.5466 21.8046 37.5466 21.3333V10.24C37.5466 9.76874 37.9287 9.38666 38.4 9.38666H41.8133C42.2846 9.38666 42.6666 9.76874 42.6666 10.24V21.3333C42.6666 21.8046 42.2846 22.1867 41.8133 22.1867ZM39.2533 20.48H40.96V11.0933H39.2533V20.48Z" fill="#D53232"/>
<path d="M20.48 20.48H17.0667C16.5955 20.48 16.2134 20.0979 16.2134 19.6267V11.9467C16.2134 11.4754 16.5955 11.0933 17.0667 11.0933H20.48C20.9513 11.0933 21.3334 11.4754 21.3334 11.9467V19.6267C21.3334 20.0979 20.9513 20.48 20.48 20.48ZM17.92 18.7733H19.6267V12.8H17.92V18.7733Z" fill="#D53232"/>
<path d="M45.2266 20.48H41.8133C41.342 20.48 40.96 20.0979 40.96 19.6267V11.9467C40.96 11.4754 41.342 11.0933 41.8133 11.0933H45.2266C45.6979 11.0933 46.08 11.4754 46.08 11.9467V19.6267C46.08 20.0979 45.6979 20.48 45.2266 20.48ZM42.6666 18.7733H44.3733V12.8H42.6666V18.7733Z" fill="#D53232"/>
<path d="M10.2399 19.6267C10.0149 19.6267 9.79749 19.5379 9.63664 19.3766L7.92997 17.67C7.59675 17.3368 7.59675 16.7966 7.92997 16.4634C8.2632 16.1301 8.80336 16.1301 9.13659 16.4634L10.0703 17.3971L12.0682 14.0676C12.3108 13.6627 12.8341 13.5322 13.239 13.7752C13.6433 14.0177 13.774 14.5419 13.5315 14.9459L10.9715 19.2126C10.8364 19.4377 10.6047 19.5885 10.3441 19.6205C10.3095 19.6245 10.2745 19.6267 10.2399 19.6267Z" fill="#D53232"/>
</svg>
