<svg width="54" height="50" viewBox="0 0 54 50" fill="none" xmlns="http://www.w3.org/2000/svg">
<path d="M37.7442 20.629C38.248 20.629 38.6565 20.2206 38.6565 19.7168C38.6565 19.213 38.248 18.8046 37.7442 18.8046C37.2404 18.8046 36.832 19.213 36.832 19.7168C36.832 20.2206 37.2404 20.629 37.7442 20.629Z" fill="#D53232"/>
<path d="M44.1834 16.2734C43.9651 16.2734 43.7467 16.19 43.58 16.0234L40.7867 13.23C40.4534 12.8967 40.4534 12.3566 40.7867 12.0234C41.1199 11.6901 41.6601 11.6901 41.9933 12.0234L44.7867 14.8167C45.1199 15.15 45.1199 15.6901 44.7867 16.0234C44.62 16.19 44.4016 16.2734 44.1834 16.2734Z" fill="#D53232"/>
<path d="M41.39 16.2734C41.1717 16.2734 40.9533 16.19 40.7867 16.0234C40.4534 15.6901 40.4534 15.15 40.7867 14.8167L43.58 12.0234C43.9133 11.6901 44.4534 11.6901 44.7867 12.0234C45.1199 12.3566 45.1199 12.8967 44.7867 13.23L41.9933 16.0234C41.8267 16.19 41.6084 16.2734 41.39 16.2734Z" fill="#D53232"/>
<path d="M37.2399 8.36002C35.8283 8.36002 34.6799 7.21165 34.6799 5.80002C34.6799 4.38839 35.8283 3.24002 37.2399 3.24002C38.6516 3.24002 39.7999 4.38839 39.7999 5.80002C39.7999 7.21165 38.6516 8.36002 37.2399 8.36002ZM37.2399 4.94669C36.7691 4.94669 36.3866 5.32919 36.3866 5.80002C36.3866 6.27085 36.7691 6.65335 37.2399 6.65335C37.7108 6.65335 38.0933 6.27085 38.0933 5.80002C38.0933 5.32919 37.7108 4.94669 37.2399 4.94669Z" fill="#D53232"/>
<path d="M52.6 49.32H1.39996C0.928284 49.32 0.546631 48.9384 0.546631 48.4667C0.546631 47.995 0.928284 47.6133 1.39996 47.6133H52.6C53.0716 47.6133 53.4533 47.995 53.4533 48.4667C53.4533 48.9384 53.0716 49.32 52.6 49.32Z" fill="#D53232"/>
<path d="M18.4658 39.08C18.0715 39.08 17.7182 38.8059 17.6325 38.4059L10.0766 3.14743L4.69253 2.37836C4.22575 2.3118 3.9017 1.87916 3.96826 1.4126C4.03482 0.946678 4.47066 0.623478 4.93402 0.688332L10.9074 1.54167C11.2615 1.59244 11.5456 1.85825 11.6207 2.20748L19.3007 38.0475C19.3999 38.5083 19.1066 38.9625 18.6458 39.0608C18.585 39.0743 18.5248 39.08 18.4658 39.08Z" fill="#D53232"/>
<path d="M26.1466 49.32H12.4933C12.0474 49.32 11.6766 48.9767 11.6425 48.5326L9.67344 22.9326C9.65509 22.6951 9.7368 22.4618 9.8985 22.2868C10.0594 22.1127 10.2868 22.0135 10.5244 22.0135H28.1161C28.3535 22.0135 28.5812 22.1127 28.742 22.2868C28.9037 22.4618 28.9854 22.6951 28.9671 22.9326L28.6362 27.2351C28.6004 27.7042 28.2021 28.0517 27.7195 28.0202C27.2504 27.9843 26.8986 27.5734 26.9345 27.1035L27.1941 23.72H11.4458L13.2833 47.6133H25.3566L26.5067 32.6608C26.5426 32.1917 26.9368 31.839 27.4234 31.8757C27.8925 31.9116 28.2443 32.3225 28.2085 32.7924L26.9976 48.5324C26.9633 48.9768 26.5925 49.32 26.1466 49.32Z" fill="#D53232"/>
<path d="M28.1157 23.72H10.5242C10.0783 23.72 9.70756 23.3768 9.67343 22.9326L9.08249 15.2526C9.06415 15.0152 9.14585 14.7818 9.30756 14.6068C9.4682 14.4325 9.69583 14.3333 9.93327 14.3333H28.7066C28.944 14.3333 29.1717 14.4325 29.3325 14.6066C29.4942 14.7816 29.5759 15.0149 29.5576 15.2524L28.9667 22.9324C28.9325 23.3768 28.5615 23.72 28.1157 23.72ZM11.3142 22.0133H27.3259L27.785 16.04H10.8549L11.3142 22.0133Z" fill="#D53232"/>
<path d="M35.5333 30.9768C35.0616 30.9768 34.6799 30.5951 34.6799 30.1234C34.6799 25.2976 37.695 24.2367 37.8232 24.1943C38.274 24.0434 38.7531 24.2868 38.9024 24.7333C39.0507 25.1767 38.8141 25.6558 38.374 25.8092C38.2716 25.8476 36.3866 26.6092 36.3866 30.1234C36.3866 30.5951 36.0049 30.9768 35.5333 30.9768Z" fill="#D53232"/>
<path d="M37.5643 48.8458C37.0877 48.8458 36.6085 48.7999 36.1292 48.7067C35.9267 48.6666 35.7283 48.6192 35.5333 48.5642C35.3383 48.6192 35.1399 48.6666 34.9383 48.7067C30.225 49.6242 25.5001 45.87 24.4176 40.3284C23.8983 37.6718 24.2808 34.9968 25.4951 32.7967C26.7367 30.5475 28.6951 29.0591 31.0094 28.6066C32.5053 28.3141 34.0626 28.4899 35.5335 29.1159C37.0036 28.4899 38.561 28.3141 40.0577 28.6066C42.3719 29.0591 44.3301 30.5475 45.5719 32.7967C46.786 34.9966 47.1685 37.6718 46.6495 40.3293C45.6767 45.3059 41.7684 48.8458 37.5643 48.8458ZM35.5333 46.8191C35.6217 46.8191 35.7091 46.8323 35.7942 46.8599C36.0093 46.929 36.2309 46.9874 36.4566 47.0316C40.2516 47.7674 44.0724 44.619 44.9742 40.0016C45.4166 37.7375 45.0983 35.4717 44.0775 33.6217C43.0843 31.8216 41.5399 30.635 39.7309 30.2817C38.4709 30.0334 37.1468 30.2226 35.9041 30.8208C35.669 30.9341 35.3974 30.9341 35.1623 30.8208C33.919 30.2209 32.5932 30.0334 31.3356 30.2817C29.5265 30.635 27.9822 31.8218 26.9889 33.6217C25.9681 35.4717 25.6498 37.7375 26.0923 40.0008C26.994 44.6184 30.8089 47.7682 34.6107 47.0316C34.8357 46.9874 35.0574 46.9292 35.2724 46.8599C35.3575 46.8325 35.445 46.8191 35.5333 46.8191Z" fill="#D53232"/>
<path d="M28.7066 37.8034C28.2349 37.8034 27.8533 37.4218 27.8533 36.9501C27.8533 33.7234 30.5091 32.2068 31.9132 31.8559C32.3691 31.7409 32.8331 32.0185 32.9475 32.4767C33.0616 32.9326 32.7858 33.3951 32.3299 33.5101C32.21 33.5417 29.5599 34.2659 29.5599 36.9501C29.5599 37.4218 29.1783 37.8034 28.7066 37.8034Z" fill="#D53232"/>
</svg>
