<svg width="54" height="38" viewBox="0 0 54 38" fill="none" xmlns="http://www.w3.org/2000/svg">
<path d="M10.7866 7.90667C10.5684 7.90667 10.3499 7.82325 10.1833 7.65664L7.62333 5.09664C7.29011 4.76341 7.29011 4.22325 7.62333 3.89003C7.95656 3.5568 8.49672 3.5568 8.82995 3.89003L11.3899 6.45003C11.7232 6.78325 11.7232 7.32341 11.3899 7.65664C11.2233 7.82325 11.0049 7.90667 10.7866 7.90667Z" fill="#D53232"/>
<path d="M8.22664 7.90667C8.0084 7.90667 7.78995 7.82325 7.62333 7.65664C7.29011 7.32341 7.29011 6.78325 7.62333 6.45003L10.1833 3.89003C10.5166 3.5568 11.0567 3.5568 11.3899 3.89003C11.7232 4.22325 11.7232 4.76341 11.3899 5.09664L8.82995 7.65664C8.66333 7.82325 8.44488 7.90667 8.22664 7.90667Z" fill="#D53232"/>
<path d="M42.3599 8.75998C40.9483 8.75998 39.7999 7.61161 39.7999 6.19998C39.7999 4.78836 40.9483 3.63998 42.3599 3.63998C43.7716 3.63998 44.9199 4.78836 44.9199 6.19998C44.9199 7.61161 43.7716 8.75998 42.3599 8.75998ZM42.3599 5.34665C41.8895 5.34665 41.5066 5.72958 41.5066 6.19998C41.5066 6.67038 41.8895 7.05332 42.3599 7.05332C42.8303 7.05332 43.2133 6.67038 43.2133 6.19998C43.2133 5.72958 42.8303 5.34665 42.3599 5.34665Z" fill="#D53232"/>
<path d="M20.1733 2.78665C20.6446 2.78665 21.0266 2.4046 21.0266 1.93332C21.0266 1.46204 20.6446 1.07999 20.1733 1.07999C19.702 1.07999 19.3199 1.46204 19.3199 1.93332C19.3199 2.4046 19.702 2.78665 20.1733 2.78665Z" fill="#D53232"/>
<path d="M30.4133 1.93332C30.8846 1.93332 31.2666 1.55127 31.2666 1.07999C31.2666 0.608704 30.8846 0.226654 30.4133 0.226654C29.942 0.226654 29.5599 0.608704 29.5599 1.07999C29.5599 1.55127 29.942 1.93332 30.4133 1.93332Z" fill="#D53232"/>
<path d="M16.4453 37.7733H12.808C11.6933 37.7733 10.7866 36.8666 10.7866 35.752V15.9011C10.7866 14.7864 11.6933 13.8798 12.808 13.8798H16.4455C17.5602 13.8798 18.4668 14.7864 18.4668 15.9011V35.752C18.4666 36.8666 17.56 37.7733 16.4453 37.7733ZM12.808 15.5866C12.6347 15.5866 12.4933 15.7279 12.4933 15.9013V35.7522C12.4933 35.9254 12.6345 36.0669 12.808 36.0669H16.4455C16.6187 36.0669 16.7602 35.9256 16.7602 35.7522V15.9013C16.7602 15.7281 16.6189 15.5866 16.4455 15.5866H12.808Z" fill="#D53232"/>
<path d="M11.64 35.2133H6.83469C5.72002 35.2133 4.81335 34.3066 4.81335 33.192V18.4611C4.81335 17.3464 5.72002 16.4398 6.83469 16.4398H11.64C12.1113 16.4398 12.4934 16.8218 12.4934 17.2931V34.3598C12.4934 34.8312 12.1113 35.2133 11.64 35.2133ZM6.83469 18.1466C6.66146 18.1466 6.52002 18.2879 6.52002 18.4613V33.1922C6.52002 33.3654 6.66125 33.5069 6.83469 33.5069H10.7867V18.1469H6.83469V18.1466Z" fill="#D53232"/>
<path d="M5.66663 30.9467H2.56796C1.4533 30.9467 0.546631 30.04 0.546631 28.9253V22.7278C0.546631 21.6131 1.4533 20.7065 2.56796 20.7065H5.66663C6.13788 20.7065 6.51996 21.0885 6.51996 21.5598V30.0931C6.51996 30.5646 6.13788 30.9467 5.66663 30.9467ZM2.56796 22.4133C2.39474 22.4133 2.2533 22.5546 2.2533 22.728V28.9255C2.2533 29.0988 2.39452 29.2402 2.56796 29.2402H4.8133V22.4135H2.56796V22.4133Z" fill="#D53232"/>
<path d="M41.192 37.7733H37.5544C36.4397 37.7733 35.5331 36.8666 35.5331 35.752V15.9011C35.5331 14.7864 36.4397 13.8798 37.5544 13.8798H41.192C42.3066 13.8798 43.2133 14.7864 43.2133 15.9011V35.752C43.2133 36.8666 42.3066 37.7733 41.192 37.7733ZM37.5546 15.5866C37.3814 15.5866 37.24 15.7279 37.24 15.9013V35.7522C37.24 35.9254 37.3812 36.0669 37.5546 36.0669H41.1922C41.3654 36.0669 41.5068 35.9256 41.5068 35.7522V15.9013C41.5068 15.7281 41.3656 15.5866 41.1922 15.5866H37.5546Z" fill="#D53232"/>
<path d="M47.1653 35.2133H42.3599C41.8887 35.2133 41.5066 34.8313 41.5066 34.36V17.2933C41.5066 16.8221 41.8887 16.44 42.3599 16.44H47.1653C48.2799 16.44 49.1866 17.3467 49.1866 18.4613V33.1922C49.1866 34.3067 48.2799 35.2133 47.1653 35.2133ZM43.2133 33.5067H47.1653C47.3385 33.5067 47.4799 33.3654 47.4799 33.192V18.4611C47.4799 18.2879 47.3387 18.1465 47.1653 18.1465H43.2133V33.5067Z" fill="#D53232"/>
<path d="M51.432 30.9467H48.3333C47.8621 30.9467 47.48 30.5646 47.48 30.0933V21.56C47.48 21.0887 47.8621 20.7067 48.3333 20.7067H51.432C52.5466 20.7067 53.4533 21.6133 53.4533 22.728V28.9255C53.4533 30.04 52.5466 30.9467 51.432 30.9467ZM49.1866 29.24H51.432C51.6052 29.24 51.7466 29.0988 51.7466 28.9253V22.7278C51.7466 22.5546 51.6054 22.4131 51.432 22.4131H49.1866V29.24Z" fill="#D53232"/>
<path d="M36.3867 29.24H17.6133C17.1421 29.24 16.76 28.8579 16.76 28.3867V22.4133C16.76 21.9421 17.1421 21.56 17.6133 21.56H32.9588C33.4301 21.56 33.8122 21.9421 33.8122 22.4133C33.8122 22.8846 33.4301 23.2667 32.9588 23.2667H18.4667V27.5333H35.5333V22.4133C35.5333 21.9421 35.9154 21.56 36.3867 21.56C36.8579 21.56 37.24 21.9421 37.24 22.4133V28.3867C37.24 28.8579 36.8579 29.24 36.3867 29.24Z" fill="#D53232"/>
<path d="M26.9999 16.44C26.5287 16.44 26.1466 16.0579 26.1466 15.5866V13.0266C26.1466 12.5554 26.5287 12.1733 26.9999 12.1733C27.4712 12.1733 27.8533 12.5554 27.8533 13.0266V15.5866C27.8533 16.0579 27.4712 16.44 26.9999 16.44Z" fill="#D53232"/>
<path d="M29.5591 17.2933C29.4311 17.2933 29.3007 17.2645 29.1783 17.2033C28.7565 16.9925 28.5858 16.4799 28.7966 16.0583L29.6499 14.3517C29.8607 13.9308 30.3725 13.7588 30.7949 13.97C31.2167 14.1808 31.3873 14.6934 31.1766 15.115L30.3232 16.8216C30.1737 17.1207 29.8725 17.2933 29.5591 17.2933Z" fill="#D53232"/>
<path d="M24.4408 17.2933C24.1275 17.2933 23.8262 17.1207 23.6767 16.8216L22.8233 15.115C22.6126 14.6932 22.7832 14.1808 23.205 13.97C23.6274 13.7588 24.1392 13.9308 24.35 14.3517L25.2033 16.0583C25.4141 16.4801 25.2434 16.9925 24.8216 17.2033C24.6992 17.2645 24.5688 17.2933 24.4408 17.2933Z" fill="#D53232"/>
</svg>
