<svg width="129" height="128" viewBox="0 0 129 128" fill="none" xmlns="http://www.w3.org/2000/svg">
<path d="M66.362 18.3603C67.3696 18.3603 68.1864 17.5435 68.1864 16.5359C68.1864 15.5282 67.3696 14.7114 66.362 14.7114C65.3544 14.7114 64.5375 15.5282 64.5375 16.5359C64.5375 17.5435 65.3544 18.3603 66.362 18.3603Z" fill="#D53232"/>
<path d="M89.2466 85.9822C88.8101 85.9822 88.3732 85.8154 88.04 85.4822L82.92 80.3622C82.2536 79.6957 82.2536 78.6154 82.92 77.9489C83.5865 77.2825 84.6668 77.2825 85.3332 77.9489L90.4532 83.0689C91.1197 83.7354 91.1197 84.8157 90.4532 85.4822C90.12 85.8154 89.6831 85.9822 89.2466 85.9822Z" fill="#D53232"/>
<path d="M84.1266 85.9822C83.6901 85.9822 83.2532 85.8154 82.92 85.4822C82.2536 84.8157 82.2536 83.7354 82.92 83.0689L88.04 77.9489C88.7065 77.2825 89.7868 77.2825 90.4532 77.9489C91.1197 78.6154 91.1197 79.6957 90.4532 80.3622L85.3332 85.4822C85 85.8154 84.5631 85.9822 84.1266 85.9822Z" fill="#D53232"/>
<path d="M67.06 45.0222H56.82C55.8775 45.0222 55.1133 44.2581 55.1133 43.3156V40.4539C55.1133 37.3264 57.6576 34.7822 60.785 34.7822H73.8867C74.8292 34.7822 75.5933 35.5464 75.5933 36.4889C75.5933 41.1937 71.7649 45.0222 67.06 45.0222ZM58.5267 41.6089H67.06C69.2851 41.6089 71.1833 40.1821 71.8873 38.1956H60.785C59.54 38.1956 58.5267 39.2089 58.5267 40.4539V41.6089Z" fill="#D53232"/>
<path d="M70.4733 60.3822H63.9692C59.086 60.3822 55.1133 56.4095 55.1133 51.5263V43.3156C55.1133 42.373 55.8775 41.6089 56.82 41.6089H70.4733C71.4158 41.6089 72.18 42.373 72.18 43.3156V58.6756C72.18 59.6181 71.4158 60.3822 70.4733 60.3822ZM58.5267 45.0222V51.5263C58.5267 54.5271 60.9685 56.9689 63.9692 56.9689H68.7667V45.0222H58.5267Z" fill="#D53232"/>
<path d="M38.9 84.2755C35.6065 84.2755 32.9266 81.5956 32.9266 78.3022C32.9266 75.0088 35.6065 72.3289 38.9 72.3289C42.1934 72.3289 44.8733 75.0088 44.8733 78.3022C44.8733 81.5956 42.1934 84.2755 38.9 84.2755ZM38.9 75.7422C37.4881 75.7422 36.34 76.8904 36.34 78.3022C36.34 79.714 37.4881 80.8622 38.9 80.8622C40.3118 80.8622 41.46 79.714 41.46 78.3022C41.46 76.8904 40.3118 75.7422 38.9 75.7422Z" fill="#D53232"/>
<path d="M77.3 113.289H69.2782C68.5806 113.289 67.9526 112.864 67.6931 112.216L64.5 104.231L61.3068 112.216C61.0478 112.864 60.4193 113.289 59.7217 113.289H51.7C51.2084 113.289 50.74 113.076 50.4157 112.707C50.0914 112.337 49.9434 111.845 50.0082 111.357L53.4216 85.7566C53.5351 84.9092 54.2583 84.2756 55.1133 84.2756H73.8866C74.7417 84.2756 75.4649 84.9088 75.5784 85.7566L78.9917 111.357C79.0566 111.845 78.9085 112.337 78.5842 112.707C78.26 113.076 77.7915 113.289 77.3 113.289ZM70.434 109.876H75.3505L72.392 87.689H56.6071L53.6486 109.876H58.565L62.9141 99.0016C63.173 98.3539 63.8015 97.929 64.4991 97.929C65.1967 97.929 65.8248 98.3539 66.0842 99.0016L70.434 109.876Z" fill="#D53232"/>
<path d="M114.847 34.7822H14.1533C13.2108 34.7822 12.4467 34.0181 12.4467 33.0756V27.9556C12.4467 27.0131 13.2108 26.2489 14.1533 26.2489H114.847C115.789 26.2489 116.553 27.0131 116.553 27.9556V33.0756C116.553 34.0181 115.789 34.7822 114.847 34.7822ZM15.86 31.3689H113.14V29.6622H15.86V31.3689Z" fill="#D53232"/>
<path d="M89.2467 31.3689H82.42C81.4775 31.3689 80.7134 30.6047 80.7134 29.6622V26.2489C80.7134 23.4257 83.0101 21.1289 85.8334 21.1289C88.6566 21.1289 90.9534 23.4257 90.9534 26.2489V29.6622C90.9534 30.6047 90.1892 31.3689 89.2467 31.3689ZM84.1267 27.9556H87.54V26.2489C87.54 25.3081 86.7742 24.5422 85.8334 24.5422C84.8926 24.5422 84.1267 25.3081 84.1267 26.2489V27.9556Z" fill="#D53232"/>
<path d="M46.58 31.3689H39.7533C38.8108 31.3689 38.0466 30.6047 38.0466 29.6622V26.2489C38.0466 23.4257 40.3434 21.1289 43.1666 21.1289C45.9899 21.1289 48.2866 23.4257 48.2866 26.2489V29.6622C48.2866 30.6047 47.5225 31.3689 46.58 31.3689ZM41.46 27.9556H44.8733V26.2489C44.8733 25.3081 44.1074 24.5422 43.1666 24.5422C42.2258 24.5422 41.46 25.3081 41.46 26.2489V27.9556Z" fill="#D53232"/>
<path d="M79.0066 65.5023C78.5791 65.5023 78.1516 65.3431 77.8201 65.0223C77.1425 64.3665 77.125 63.2866 77.78 62.6091L86.8543 53.2314C87.3275 52.8098 87.54 52.3413 87.54 51.849V34.7823H85.6724L84.1181 50.4683C84.0754 50.9001 83.8698 51.299 83.5438 51.584L73.9711 59.9599C73.6596 60.2325 73.2603 60.3823 72.8468 60.3823H56.1518C55.7384 60.3823 55.3394 60.2321 55.0275 59.9599L45.4557 51.584C45.1297 51.299 44.9241 50.8996 44.8814 50.4683L43.3271 34.7823H41.46V51.849C41.46 52.3413 41.6724 52.8098 42.0432 53.1341L51.22 62.6091C51.8749 63.2866 51.8574 64.3665 51.1799 65.0223C50.504 65.6772 49.4224 65.6597 48.7666 64.9822L39.6923 55.6045C38.6841 54.7294 38.0466 53.3252 38.0466 51.8485V33.0752C38.0466 32.1327 38.8108 31.3685 39.7533 31.3685H44.8733C45.751 31.3685 46.4848 32.0337 46.5714 32.9067L48.2115 49.4592L56.7939 56.9685H72.2056L80.788 49.4592L82.4281 32.9067C82.5147 32.0333 83.249 31.3685 84.1262 31.3685H89.2462C90.1887 31.3685 90.9529 32.1327 90.9529 33.0752V51.8485C90.9529 53.3252 90.3154 54.7294 89.2044 55.7018L80.2329 64.9818C79.8984 65.3282 79.4525 65.5023 79.0066 65.5023Z" fill="#D53232"/>
<path d="M73.8867 87.6889H55.1133C54.2792 87.6889 53.5667 87.0856 53.4301 86.263L50.155 66.6154L46.1324 64.4846C45.7301 64.2713 45.4293 63.9048 45.2974 63.4679C45.1656 63.031 45.2151 62.5603 45.4331 62.1597L49.9972 53.7847C50.2446 53.3298 50.6854 53.012 51.1957 52.9215C51.7047 52.8281 52.2291 52.9748 52.6199 53.3175L56.7931 56.9693H72.2064L76.3797 53.3175C76.7705 52.9748 77.294 52.8285 77.8039 52.9215C78.3138 53.0124 78.7549 53.3298 79.0024 53.7847L83.5664 62.1597C83.7849 62.5603 83.834 63.0314 83.7021 63.4679C83.5703 63.9043 83.2695 64.2713 82.8671 64.4846L78.8445 66.6154L75.5694 86.263C75.4333 87.0856 74.7208 87.6889 73.8867 87.6889ZM56.5593 84.2755H72.4411L75.6168 65.2215C75.7043 64.6971 76.0311 64.2431 76.5008 63.9939L79.7435 62.2766L77.0252 57.2885L73.972 59.9602C73.6605 60.2329 73.2612 60.3826 72.8477 60.3826H56.1527C55.7392 60.3826 55.3403 60.2324 55.0284 59.9602L51.9752 57.2885L49.2569 62.2766L52.4996 63.9939C52.9698 64.2431 53.2962 64.6971 53.3836 65.2215L56.5593 84.2755Z" fill="#D53232"/>
<path d="M64.5 68.9155C63.9432 68.9155 63.4209 68.6438 63.1018 68.1872L57.1285 59.6539C56.7637 59.1329 56.7193 58.4524 57.0128 57.8871C57.3068 57.323 57.8905 56.9689 58.5271 56.9689H70.4737C71.1103 56.9689 71.6936 57.323 71.988 57.8871C72.2815 58.452 72.2372 59.1329 71.8724 59.6539L65.899 68.1872C65.579 68.6438 65.0568 68.9155 64.5 68.9155ZM61.8043 60.3822L64.5 64.2329L67.1957 60.3822H61.8043Z" fill="#D53232"/>
<path d="M111.433 113.289C110.491 113.289 109.727 112.525 109.727 111.582V34.7822H106.313V111.582C106.313 112.525 105.549 113.289 104.607 113.289C103.664 113.289 102.9 112.525 102.9 111.582V33.0756C102.9 32.1331 103.664 31.3689 104.607 31.3689H111.433C112.376 31.3689 113.14 32.1331 113.14 33.0756V111.582C113.14 112.525 112.376 113.289 111.433 113.289Z" fill="#D53232"/>
<path d="M24.3933 113.289C23.4508 113.289 22.6867 112.525 22.6867 111.582V34.7822H19.2733V111.582C19.2733 112.525 18.5092 113.289 17.5667 113.289C16.6241 113.289 15.86 112.525 15.86 111.582V33.0756C15.86 32.1331 16.6241 31.3689 17.5667 31.3689H24.3933C25.3358 31.3689 26.1 32.1331 26.1 33.0756V111.582C26.1 112.525 25.3358 113.289 24.3933 113.289Z" fill="#D53232"/>
</svg>
