<svg width="129" height="128" viewBox="0 0 129 128" fill="none" xmlns="http://www.w3.org/2000/svg">
<path d="M69.4889 47.5327C69.4023 47.5327 69.3157 47.5259 69.2291 47.5127L62.4826 46.4741C61.5516 46.3308 60.3568 46.9311 60.5001 46.0001L63.5617 28.2401H44.7768L47.5001 46.0001C47.6435 46.9311 46.7868 46.3312 45.8558 46.4746L39.1094 47.5131C38.6635 47.5813 38.2053 47.4713 37.8401 47.2029C37.4748 46.9345 37.2308 46.533 37.1625 46.0855L34.6174 29.5423C34.1716 26.6508 35.0091 23.7175 36.915 21.4958C38.8205 19.2741 41.5922 18.0001 44.5191 18.0001H63.8189C66.7454 18.0001 69.5171 19.2741 71.423 21.4949C73.3289 23.7166 74.1665 26.6499 73.7206 29.5423L71.1755 46.0846C71.1073 46.5322 70.8632 46.9337 70.498 47.202C70.204 47.4184 69.8499 47.5327 69.4889 47.5327ZM44.5191 21.4135C42.5893 21.4135 40.7614 22.2536 39.5049 23.7183C38.2492 25.1826 37.6967 27.1159 37.9907 29.0226L40.2763 43.8792L43.6487 43.3599L41.3639 28.5034C41.2222 27.5818 41.4889 26.6474 42.0965 25.9408C42.7032 25.2325 43.5864 24.8268 44.5191 24.8268H63.8189C64.7516 24.8268 65.6348 25.2325 66.2416 25.9408C66.8491 26.6474 67.1158 27.5818 66.9741 28.5034L64.6893 43.3599L68.0617 43.8792L70.3474 29.0235C70.6413 27.1159 70.0892 25.1826 68.8331 23.7183C67.5766 22.2536 65.7492 21.4135 63.8189 21.4135H44.5191Z" fill="#D53232"/>
<path d="M103.055 90.2448C104.063 90.2448 104.88 89.428 104.88 88.4204C104.88 87.4128 104.063 86.5959 103.055 86.5959C102.048 86.5959 101.231 87.4128 101.231 88.4204C101.231 89.428 102.048 90.2448 103.055 90.2448Z" fill="#D53232"/>
<path d="M23.5401 33.2801C23.1036 33.2801 22.6667 33.1132 22.3335 32.78L17.2135 27.66C16.547 26.9936 16.547 25.9132 17.2135 25.2468C17.8799 24.5803 18.9602 24.5803 19.6267 25.2468L24.7467 30.3668C25.4131 31.0332 25.4131 32.1136 24.7467 32.78C24.4135 33.1132 23.9766 33.2801 23.5401 33.2801Z" fill="#D53232"/>
<path d="M18.4201 33.2801C17.9836 33.2801 17.5467 33.1132 17.2135 32.78C16.547 32.1136 16.547 31.0332 17.2135 30.3668L22.3335 25.2468C22.9999 24.5803 24.0802 24.5803 24.7467 25.2468C25.4131 25.9132 25.4131 26.9936 24.7467 27.66L19.6267 32.78C19.2935 33.1132 18.8566 33.2801 18.4201 33.2801Z" fill="#D53232"/>
<path d="M106.228 77.6534H97.4818C96.5392 77.6534 95.7751 76.8892 95.7751 75.9467C95.7751 75.0042 96.5392 74.24 97.4818 74.24H106.228C107.687 74.24 108.873 73.0535 108.873 71.5943V50.5468C108.873 44.7902 104.19 40.1067 98.4332 40.1067H85.1801C79.4235 40.1067 74.74 44.7902 74.74 50.5468V71.5943C74.74 73.0535 75.9266 74.24 77.3858 74.24H90.1C91.0425 74.24 91.8067 75.0042 91.8067 75.9467C91.8067 76.8892 91.0425 77.6534 90.1 77.6534H77.3858C74.045 77.6534 71.3267 74.9351 71.3267 71.5943V50.5468C71.3267 42.9082 77.5415 36.6934 85.1801 36.6934H98.4332C106.072 36.6934 112.287 42.9082 112.287 50.5468V71.5943C112.287 74.9351 109.568 77.6534 106.228 77.6534Z" fill="#D53232"/>
<path d="M77.8227 106.667H30.6974C22.9867 106.667 16.7134 100.393 16.7134 92.6827V65.391C16.7134 54.2724 25.7591 45.2267 36.8776 45.2267H71.6425C82.761 45.2267 91.8067 54.2724 91.8067 65.391V92.6827C91.8067 100.393 85.5334 106.667 77.8227 106.667ZM36.8776 48.64C27.6407 48.64 20.1267 56.154 20.1267 65.391V92.6827C20.1267 98.5118 24.8683 103.253 30.6974 103.253H77.8223C83.6518 103.253 88.3934 98.5118 88.3934 92.6827V65.391C88.3934 56.1545 80.8794 48.64 71.6425 48.64H36.8776Z" fill="#D53232"/>
<path d="M98.6333 40.1068H84.98C84.11 40.1068 83.38 39.4527 83.284 38.5883L82.0607 27.5781C81.8841 25.9896 82.394 24.3965 83.4598 23.2056C84.5247 22.0157 86.0522 21.333 87.6496 21.333H95.9628C97.5603 21.333 99.0877 22.0157 100.153 23.2056C101.218 24.3965 101.728 25.9896 101.553 27.5781L100.328 38.5883C100.233 39.4527 99.5033 40.1068 98.6333 40.1068ZM86.5075 36.6934H97.1059L98.161 27.2018C98.231 26.5686 98.0351 25.9576 97.6102 25.4828C97.1852 25.0087 96.6011 24.7468 95.9637 24.7468H87.6505C87.0131 24.7468 86.4289 25.0083 86.004 25.4828C85.579 25.9576 85.3832 26.5686 85.454 27.2018L86.5075 36.6934Z" fill="#D53232"/>
<path d="M90.1 93.0134H83.2733C82.3308 93.0134 81.5667 92.2493 81.5667 91.3068C81.5667 90.3643 82.3308 89.6001 83.2733 89.6001H90.1C91.0425 89.6001 91.8066 90.3643 91.8066 91.3068C91.8066 92.2493 91.0425 93.0134 90.1 93.0134Z" fill="#D53232"/>
<path d="M25.2467 93.0134H18.42C17.4775 93.0134 16.7134 92.2493 16.7134 91.3068C16.7134 90.3643 17.4775 89.6001 18.42 89.6001H25.2467C26.1892 89.6001 26.9534 90.3643 26.9534 91.3068C26.9534 92.2493 26.1892 93.0134 25.2467 93.0134Z" fill="#D53232"/>
<path d="M90.1 87.8934H83.2733C82.3308 87.8934 81.5667 87.1293 81.5667 86.1868C81.5667 85.2443 82.3308 84.4801 83.2733 84.4801H90.1C91.0425 84.4801 91.8066 85.2443 91.8066 86.1868C91.8066 87.1293 91.0425 87.8934 90.1 87.8934Z" fill="#D53232"/>
<path d="M25.2467 87.8934H18.42C17.4775 87.8934 16.7134 87.1293 16.7134 86.1868C16.7134 85.2443 17.4775 84.4801 18.42 84.4801H25.2467C26.1892 84.4801 26.9534 85.2443 26.9534 86.1868C26.9534 87.1293 26.1892 87.8934 25.2467 87.8934Z" fill="#D53232"/>
</svg>
