<svg width="129" height="128" viewBox="0 0 129 128" fill="none" xmlns="http://www.w3.org/2000/svg">
<path d="M70.4733 31.5733C67.65 31.5733 65.3533 29.2765 65.3533 26.4533C65.3533 23.63 67.65 21.3333 70.4733 21.3333C73.2965 21.3333 75.5933 23.63 75.5933 26.4533C75.5933 29.2765 73.2965 31.5733 70.4733 31.5733ZM70.4733 24.7466C69.5325 24.7466 68.7666 25.5116 68.7666 26.4533C68.7666 27.3949 69.5325 28.1599 70.4733 28.1599C71.4141 28.1599 72.1799 27.3949 72.1799 26.4533C72.1799 25.5116 71.4141 24.7466 70.4733 24.7466Z" fill="#D53232"/>
<path d="M56.8199 41.8132C57.7625 41.8132 58.5266 41.0491 58.5266 40.1066C58.5266 39.164 57.7625 38.3999 56.8199 38.3999C55.8774 38.3999 55.1133 39.164 55.1133 40.1066C55.1133 41.0491 55.8774 41.8132 56.8199 41.8132Z" fill="#D53232"/>
<path d="M53.4067 24.7466C52.9702 24.7466 52.5333 24.5798 52.2 24.2466L47.08 19.1266C46.4136 18.4601 46.4136 17.3798 47.08 16.7133C47.7465 16.0469 48.8268 16.0469 49.4933 16.7133L54.6133 21.8333C55.2797 22.4998 55.2797 23.5801 54.6133 24.2466C54.28 24.5798 53.8431 24.7466 53.4067 24.7466Z" fill="#D53232"/>
<path d="M48.2867 24.7466C47.8502 24.7466 47.4133 24.5798 47.08 24.2466C46.4136 23.5801 46.4136 22.4998 47.08 21.8333L52.2 16.7133C52.8665 16.0469 53.9468 16.0469 54.6133 16.7133C55.2797 17.3798 55.2797 18.4601 54.6133 19.1266L49.4933 24.2466C49.16 24.5798 48.7231 24.7466 48.2867 24.7466Z" fill="#D53232"/>
<path d="M90.9533 106.667H67.0599C66.4635 106.667 65.9109 106.355 65.6007 105.845C65.2914 105.337 65.2709 104.701 65.5457 104.173L76.0831 83.9099C76.5174 83.0732 77.5449 82.7451 78.385 83.1833C79.2208 83.6168 79.5468 84.6485 79.1116 85.4835L69.8708 103.253H89.5542L97.4049 63.9999H90.2826L83.0659 77.8781C82.6307 78.7131 81.599 79.0382 80.7641 78.6064C79.9282 78.1712 79.6022 77.1396 80.0374 76.3046L87.7324 61.5061C88.0259 60.9412 88.61 60.5862 89.2466 60.5862H99.4866C99.9982 60.5862 100.482 60.8162 100.807 61.2113C101.131 61.6063 101.261 62.1264 101.16 62.6278L92.6267 105.294C92.4675 106.091 91.7665 106.667 90.9533 106.667Z" fill="#D53232"/>
<path d="M86.5006 111.787H47.4333C36.6109 111.787 27.8066 102.982 27.8066 92.16C27.8066 81.3384 36.6109 72.5333 47.4333 72.5333H65.5858C68.0784 72.5333 70.4434 73.4818 72.2457 75.2017L93.16 95.165C96.0716 97.9452 96.9501 101.993 95.4534 105.73C93.9558 109.465 90.5258 111.787 86.5006 111.787ZM47.4333 75.9467C38.4934 75.9467 31.22 83.22 31.22 92.16C31.22 101.1 38.4934 108.373 47.4333 108.373H86.5006C89.6089 108.373 91.5263 106.352 92.2849 104.46C93.0423 102.568 93.0517 99.7815 90.8031 97.635L69.8888 77.6717C68.724 76.5585 67.1957 75.9467 65.5854 75.9467H47.4333Z" fill="#D53232"/>
<path d="M43.1667 75.9466C42.4819 75.9466 41.8351 75.5315 41.5735 74.8535L33.0402 52.6669C32.7019 51.7871 33.1409 50.7985 34.0211 50.4601C34.8988 50.1286 35.8869 50.56 36.227 51.4402L44.7603 73.6269C45.0987 74.5066 44.6596 75.4952 43.7794 75.8336C43.5776 75.91 43.3707 75.9466 43.1667 75.9466Z" fill="#D53232"/>
<path d="M43.1666 53.76H24.3933C23.4508 53.76 22.6866 52.9967 22.6866 52.0533V51.5601C22.6866 49.4899 23.6125 47.5601 25.2274 46.2651C26.8415 44.9719 28.9275 44.4902 30.9456 44.9335L43.4397 46.9551C44.2657 47.0899 44.8729 47.8033 44.8729 48.64V52.0533C44.8733 52.9967 44.1092 53.76 43.1666 53.76ZM26.324 50.3466H41.46V50.0915L30.3026 48.285C29.2061 48.0418 28.1642 48.2833 27.3633 48.9284C26.8889 49.3081 26.5348 49.7984 26.324 50.3466Z" fill="#D53232"/>
<path d="M46.58 100.693C40.9335 100.693 36.34 96.0998 36.34 90.4533C36.34 84.8067 40.9335 80.2133 46.58 80.2133C52.2265 80.2133 56.82 84.8067 56.82 90.4533C56.82 96.0998 52.2265 100.693 46.58 100.693ZM46.58 83.6266C42.8159 83.6266 39.7533 86.6883 39.7533 90.4533C39.7533 94.2182 42.8159 97.2799 46.58 97.2799C50.344 97.2799 53.4066 94.2182 53.4066 90.4533C53.4066 86.6883 50.344 83.6266 46.58 83.6266Z" fill="#D53232"/>
<path d="M58.5267 103.253C58.0902 103.253 57.6533 103.087 57.32 102.753L45.3734 90.8066C44.7069 90.1402 44.7069 89.0598 45.3734 88.3934C46.0398 87.7269 47.1202 87.7269 47.7866 88.3934L59.7333 100.34C60.3997 101.007 60.3997 102.087 59.7333 102.753C59.4 103.087 58.9631 103.253 58.5267 103.253Z" fill="#D53232"/>
<path d="M63.6466 103.253H53.4066C52.4641 103.253 51.7 102.49 51.7 101.547C51.7 100.603 52.4641 99.84 53.4066 99.84H63.6466C64.5891 99.84 65.3533 100.603 65.3533 101.547C65.3533 102.49 64.5891 103.253 63.6466 103.253Z" fill="#D53232"/>
<path d="M86.6867 104.96C88.1006 104.96 89.2467 103.814 89.2467 102.4C89.2467 100.986 88.1006 99.84 86.6867 99.84C85.2729 99.84 84.1267 100.986 84.1267 102.4C84.1267 103.814 85.2729 104.96 86.6867 104.96Z" fill="#D53232"/>
<path d="M94.3684 64C94.231 64 94.0919 63.9834 93.9524 63.9484C93.0381 63.7201 92.4825 62.7934 92.7108 61.8799L96.1241 48.2266C96.3541 47.3101 97.2808 46.7567 98.1943 46.985C99.1087 47.2132 99.6642 48.14 99.4359 49.0535L96.0226 62.7068C95.8285 63.4833 95.1326 64 94.3684 64Z" fill="#D53232"/>
<path d="M106.313 50.3467H80.7134C79.7709 50.3467 79.0067 49.5834 79.0067 48.64C79.0067 47.6967 79.7709 46.9333 80.7134 46.9333H106.313C107.256 46.9333 108.02 47.6967 108.02 48.64C108.02 49.5834 107.256 50.3467 106.313 50.3467Z" fill="#D53232"/>
<path d="M106.313 50.3466H101.193C100.627 50.3466 100.098 50.065 99.7802 49.5965C99.4628 49.128 99.3984 48.5315 99.6087 48.0063L106.435 30.9396C106.695 30.2915 107.322 29.8666 108.02 29.8666H113.14C113.707 29.8666 114.236 30.1482 114.553 30.6167C114.871 31.0851 114.935 31.6816 114.725 32.2068L107.898 49.2735C107.638 49.9216 107.011 50.3466 106.313 50.3466ZM103.714 46.9332H105.158L110.619 33.2799H109.176L103.714 46.9332Z" fill="#D53232"/>
<path d="M113.14 111.787H15.86C14.9175 111.787 14.1533 111.023 14.1533 110.08C14.1533 109.137 14.9175 108.373 15.86 108.373H113.14C114.082 108.373 114.847 109.137 114.847 110.08C114.847 111.023 114.082 111.787 113.14 111.787Z" fill="#D53232"/>
</svg>
