<svg width="129" height="128" viewBox="0 0 129 128" fill="none" xmlns="http://www.w3.org/2000/svg">
<path d="M32.0734 41.8134C31.6369 41.8134 31.2 41.6466 30.8668 41.3133L25.7468 36.1933C25.0803 35.5269 25.0803 34.4466 25.7468 33.7801C26.4132 33.1137 27.4936 33.1137 28.16 33.7801L33.28 38.9001C33.9465 39.5666 33.9465 40.6469 33.28 41.3133C32.9468 41.6466 32.5099 41.8134 32.0734 41.8134Z" fill="#D53232"/>
<path d="M26.9534 41.8134C26.5169 41.8134 26.08 41.6466 25.7468 41.3133C25.0803 40.6469 25.0803 39.5666 25.7468 38.9001L30.8668 33.7801C31.5332 33.1137 32.6136 33.1137 33.28 33.7801C33.9465 34.4466 33.9465 35.5269 33.28 36.1933L28.16 41.3133C27.8268 41.6466 27.3899 41.8134 26.9534 41.8134Z" fill="#D53232"/>
<path d="M95.2201 43.52C92.3968 43.52 90.1001 41.2233 90.1001 38.4C90.1001 35.5768 92.3968 33.28 95.2201 33.28C98.0433 33.28 100.34 35.5768 100.34 38.4C100.34 41.2233 98.0433 43.52 95.2201 43.52ZM95.2201 36.6934C94.2793 36.6934 93.5134 37.4592 93.5134 38.4C93.5134 39.3408 94.2793 40.1067 95.2201 40.1067C96.1609 40.1067 96.9268 39.3408 96.9268 38.4C96.9268 37.4592 96.1609 36.6934 95.2201 36.6934Z" fill="#D53232"/>
<path d="M50.8467 31.5734C51.7892 31.5734 52.5533 30.8093 52.5533 29.8667C52.5533 28.9241 51.7892 28.16 50.8467 28.16C49.9041 28.16 49.14 28.9241 49.14 29.8667C49.14 30.8093 49.9041 31.5734 50.8467 31.5734Z" fill="#D53232"/>
<path d="M71.3268 29.8667C72.2693 29.8667 73.0334 29.1026 73.0334 28.16C73.0334 27.2175 72.2693 26.4534 71.3268 26.4534C70.3842 26.4534 69.6201 27.2175 69.6201 28.16C69.6201 29.1026 70.3842 29.8667 71.3268 29.8667Z" fill="#D53232"/>
<path d="M43.3907 101.547H36.116C33.8867 101.547 32.0734 99.7334 32.0734 97.5041V57.8023C32.0734 55.573 33.8867 53.7596 36.116 53.7596H43.3911C45.6205 53.7596 47.4338 55.573 47.4338 57.8023V97.5041C47.4334 99.7334 45.62 101.547 43.3907 101.547ZM36.116 57.1734C35.7696 57.1734 35.4867 57.4559 35.4867 57.8027V97.5045C35.4867 97.851 35.7692 98.1338 36.116 98.1338H43.3911C43.7376 98.1338 44.0205 97.8514 44.0205 97.5045V57.8027C44.0205 57.4563 43.738 57.1734 43.3911 57.1734H36.116Z" fill="#D53232"/>
<path d="M33.78 96.4267H24.1694C21.94 96.4267 20.1267 94.6134 20.1267 92.3841V62.9223C20.1267 60.693 21.94 58.8796 24.1694 58.8796H33.78C34.7225 58.8796 35.4867 59.6438 35.4867 60.5863V94.7196C35.4867 95.6626 34.7225 96.4267 33.78 96.4267ZM24.1694 62.2934C23.8229 62.2934 23.54 62.5759 23.54 62.9227V92.3845C23.54 92.7309 23.8225 93.0138 24.1694 93.0138H32.0734V62.2938H24.1694V62.2934Z" fill="#D53232"/>
<path d="M21.8334 87.8934H15.636C13.4067 87.8934 11.5934 86.0801 11.5934 83.8507V71.4556C11.5934 69.2263 13.4067 67.413 15.636 67.413H21.8334C22.7759 67.413 23.5401 68.1771 23.5401 69.1196V86.1863C23.5401 87.1292 22.7759 87.8934 21.8334 87.8934ZM15.636 70.8267C15.2896 70.8267 15.0067 71.1092 15.0067 71.4561V83.8512C15.0067 84.1976 15.2892 84.4805 15.636 84.4805H20.1267V70.8272H15.636V70.8267Z" fill="#D53232"/>
<path d="M92.884 101.547H85.609C83.3796 101.547 81.5663 99.7334 81.5663 97.5041V57.8023C81.5663 55.573 83.3796 53.7596 85.609 53.7596H92.884C95.1134 53.7596 96.9267 55.573 96.9267 57.8023V97.5041C96.9267 99.7334 95.1134 101.547 92.884 101.547ZM85.6094 57.1734C85.2629 57.1734 84.98 57.4559 84.98 57.8027V97.5045C84.98 97.851 85.2625 98.1338 85.6094 98.1338H92.8845C93.2309 98.1338 93.5138 97.8514 93.5138 97.5045V57.8027C93.5138 57.4563 93.2314 57.1734 92.8845 57.1734H85.6094Z" fill="#D53232"/>
<path d="M104.831 96.4267H95.2201C94.2776 96.4267 93.5134 95.6625 93.5134 94.72V60.5867C93.5134 59.6442 94.2776 58.88 95.2201 58.88H104.831C107.06 58.88 108.873 60.6933 108.873 62.9227V92.3844C108.873 94.6133 107.06 96.4267 104.831 96.4267ZM96.9268 93.0133H104.831C105.177 93.0133 105.46 92.7309 105.46 92.384V62.9222C105.46 62.5758 105.178 62.2929 104.831 62.2929H96.9268V93.0133Z" fill="#D53232"/>
<path d="M113.364 87.8933H107.167C106.224 87.8933 105.46 87.1292 105.46 86.1867V69.12C105.46 68.1775 106.224 67.4133 107.167 67.4133H113.364C115.593 67.4133 117.407 69.2267 117.407 71.456V83.8511C117.407 86.08 115.593 87.8933 113.364 87.8933ZM108.873 84.48H113.364C113.711 84.48 113.993 84.1975 113.993 83.8507V71.4556C113.993 71.1091 113.711 70.8262 113.364 70.8262H108.873V84.48Z" fill="#D53232"/>
<path d="M83.2733 84.48H45.7267C44.7842 84.48 44.02 83.7158 44.02 82.7733V70.8267C44.02 69.8842 44.7842 69.12 45.7267 69.12H76.4177C77.3602 69.12 78.1243 69.8842 78.1243 70.8267C78.1243 71.7692 77.3602 72.5333 76.4177 72.5333H47.4334V81.0667H81.5667V70.8267C81.5667 69.8842 82.3308 69.12 83.2733 69.12C84.2159 69.12 84.98 69.8842 84.98 70.8267V82.7733C84.98 83.7158 84.2159 84.48 83.2733 84.48Z" fill="#D53232"/>
<path d="M64.5 58.88C63.5575 58.88 62.7933 58.1159 62.7933 57.1733V52.0533C62.7933 51.1108 63.5575 50.3467 64.5 50.3467C65.4425 50.3467 66.2067 51.1108 66.2067 52.0533V57.1733C66.2067 58.1159 65.4425 58.88 64.5 58.88Z" fill="#D53232"/>
<path d="M69.6184 60.5867C69.3624 60.5867 69.1017 60.5291 68.8568 60.4067C68.0133 59.9851 67.6719 58.9598 68.0935 58.1167L69.8001 54.7034C70.2217 53.8616 71.2453 53.5177 72.0901 53.9401C72.9336 54.3616 73.2749 55.3869 72.8534 56.23L71.1467 59.6434C70.8476 60.2415 70.2452 60.5867 69.6184 60.5867Z" fill="#D53232"/>
<path d="M59.3818 60.5867C58.755 60.5867 58.1526 60.2415 57.8535 59.6434L56.1468 56.23C55.7253 55.3865 56.0666 54.3616 56.9101 53.9401C57.7549 53.5177 58.7785 53.8616 59.2 54.7034L60.9067 58.1167C61.3283 58.9603 60.9869 59.9851 60.1434 60.4067C59.8985 60.5291 59.6378 60.5867 59.3818 60.5867Z" fill="#D53232"/>
</svg>
