<svg width="129" height="128" viewBox="0 0 129 128" fill="none" xmlns="http://www.w3.org/2000/svg">
<path d="M98.6333 87.8933C99.5759 87.8933 100.34 87.1292 100.34 86.1866C100.34 85.2441 99.5759 84.48 98.6333 84.48C97.6907 84.48 96.9266 85.2441 96.9266 86.1866C96.9266 87.1292 97.6907 87.8933 98.6333 87.8933Z" fill="#D53232"/>
<path d="M91.8067 70.8267C91.3702 70.8267 90.9333 70.6599 90.6001 70.3266L85.4801 65.2066C84.8136 64.5402 84.8136 63.4599 85.4801 62.7934C86.1465 62.127 87.2268 62.127 87.8933 62.7934L93.0133 67.9134C93.6797 68.5799 93.6797 69.6602 93.0133 70.3266C92.6801 70.6599 92.2432 70.8267 91.8067 70.8267Z" fill="#D53232"/>
<path d="M86.6867 70.8267C86.2502 70.8267 85.8133 70.6599 85.4801 70.3266C84.8136 69.6602 84.8136 68.5799 85.4801 67.9134L90.6001 62.7934C91.2665 62.127 92.3468 62.127 93.0133 62.7934C93.6797 63.4599 93.6797 64.5402 93.0133 65.2066L87.8933 70.3266C87.5601 70.6599 87.1232 70.8267 86.6867 70.8267Z" fill="#D53232"/>
<path d="M31.22 79.36C27.9265 79.36 25.2466 76.6801 25.2466 73.3867C25.2466 70.0932 27.9265 67.4133 31.22 67.4133C34.5134 67.4133 37.1933 70.0932 37.1933 73.3867C37.1933 76.6801 34.5134 79.36 31.22 79.36ZM31.22 70.8267C29.8081 70.8267 28.66 71.9748 28.66 73.3867C28.66 74.7985 29.8081 75.9467 31.22 75.9467C32.6318 75.9467 33.78 74.7985 33.78 73.3867C33.78 71.9748 32.6318 70.8267 31.22 70.8267Z" fill="#D53232"/>
<path d="M71.3267 26.4534H61.0867C56.3818 26.4534 52.5533 22.6249 52.5533 17.92C52.5533 16.9767 53.3167 16.2134 54.26 16.2134H67.3617C70.4883 16.2134 73.0333 18.7584 73.0333 21.8851V24.7467C73.0333 25.6901 72.27 26.4534 71.3267 26.4534ZM56.2585 19.6267C56.9634 21.6133 58.862 23.04 61.0867 23.04H69.62V21.8851C69.62 20.64 68.6067 19.6267 67.3617 19.6267H56.2585Z" fill="#D53232"/>
<path d="M74.74 70.8267H54.26C53.48 70.8267 52.7999 70.2985 52.6067 69.5433L48.0533 51.77L38.2766 49.4549C38.1849 49.4332 38.0949 49.405 38.0066 49.3683L19.7734 41.6798C19.3049 41.4814 18.9482 41.0846 18.8019 40.5982C18.6551 40.1097 18.7353 39.5831 19.0169 39.1599L22.4302 34.0399C22.8569 33.3982 23.6569 33.1234 24.3903 33.3683L39.4867 38.4H89.8235L104.92 33.3683C105.652 33.1217 106.452 33.3982 106.88 34.0399L110.294 39.1599C110.575 39.5831 110.656 40.1101 110.509 40.5982C110.362 41.085 110.005 41.4814 109.537 41.6798L91.3041 49.3696C91.2157 49.4063 91.1257 49.4345 91.034 49.4562L81.2407 51.773L76.3874 69.568C76.1834 70.3117 75.5101 70.8267 74.74 70.8267ZM55.5848 67.4133H73.4365L78.2131 49.8982C78.3782 49.2949 78.8582 48.8299 79.4666 48.6865L90.1081 46.1683L106.308 39.3365L104.763 37.018L90.6397 41.7246C90.4648 41.7835 90.2835 41.8133 90.1 41.8133H39.2102C39.0267 41.8133 38.8454 41.7835 38.67 41.725L24.5465 37.0185L23.0015 39.337L39.2017 46.167L49.8431 48.6869C50.4597 48.832 50.9448 49.3086 51.1031 49.9234L55.5848 67.4133Z" fill="#D53232"/>
<path d="M71.3267 41.8134H64.8217C59.9385 41.8134 55.9667 37.8415 55.9667 32.9583V24.7467C55.9667 23.8033 56.73 23.04 57.6733 23.04H71.3267C72.27 23.04 73.0333 23.8033 73.0333 24.7467V40.1067C73.0333 41.0501 72.27 41.8134 71.3267 41.8134ZM59.38 26.4534V32.9583C59.38 35.9582 61.8218 38.4 64.8217 38.4H69.62V26.4534H59.38Z" fill="#D53232"/>
<path d="M79.86 93.0133H66.7182C65.9417 93.0133 65.2616 92.4885 65.0666 91.7367L64.5 89.5565L63.9333 91.7363C63.7384 92.4881 63.0583 93.0129 62.2817 93.0129H49.14C48.6199 93.0129 48.1283 92.7761 47.8049 92.3678C47.4798 91.9612 47.3599 91.4295 47.4764 90.9227L52.5964 68.736C52.7752 67.9616 53.4651 67.4133 54.26 67.4133H74.74C75.5348 67.4133 76.2248 67.9616 76.4031 68.7369L81.5231 90.9235C81.6396 91.4304 81.5197 91.962 81.1946 92.3686C80.8716 92.7765 80.3801 93.0133 79.86 93.0133ZM68.0383 89.6H77.7151L73.3819 70.8267H55.6185L51.2852 89.6H60.962L62.8488 82.3433C63.0433 81.5915 63.7234 81.0667 64.5 81.0667C65.2765 81.0667 65.9566 81.5915 66.1516 82.3433L68.0383 89.6Z" fill="#D53232"/>
<path d="M73.0333 55.4667H55.9666C55.6914 55.4667 55.4184 55.4002 55.1752 55.2717L48.6587 51.8584C47.8237 51.4219 47.5003 50.3902 47.9385 49.5553C48.375 48.7203 49.4054 48.3952 50.2416 48.835L56.3865 52.0534H72.6297L79.0962 48.8201C79.9381 48.402 80.9629 48.7399 81.3862 49.5834C81.8077 50.4269 81.4664 51.4518 80.6229 51.8733L73.7962 55.2867C73.5598 55.4049 73.2983 55.4667 73.0333 55.4667Z" fill="#D53232"/>
<path d="M64.5 53.76C63.5566 53.76 62.7933 52.9967 62.7933 52.0534V48.64C62.7933 47.6967 63.5566 46.9333 64.5 46.9333C65.4434 46.9333 66.2067 47.6967 66.2067 48.64V52.0534C66.2067 52.9967 65.4434 53.76 64.5 53.76Z" fill="#D53232"/>
<path d="M64.5 65.7067C63.5566 65.7067 62.7933 64.9434 62.7933 64V58.88C62.7933 57.9366 63.5566 57.1733 64.5 57.1733C65.4434 57.1733 66.2067 57.9366 66.2067 58.88V64C66.2067 64.9434 65.4434 65.7067 64.5 65.7067Z" fill="#D53232"/>
<path d="M109.727 48.64C104.552 48.64 100.34 44.4284 100.34 39.2534C100.34 34.0783 104.552 29.8667 109.727 29.8667C114.902 29.8667 119.113 34.0783 119.113 39.2534C119.113 44.4284 114.902 48.64 109.727 48.64ZM109.727 33.28C106.433 33.28 103.753 35.9599 103.753 39.2534C103.753 42.5468 106.433 45.2267 109.727 45.2267C113.02 45.2267 115.7 42.5468 115.7 39.2534C115.7 35.9599 113.02 33.28 109.727 33.28Z" fill="#D53232"/>
<path d="M19.2733 48.64C14.0983 48.64 9.88666 44.4284 9.88666 39.2534C9.88666 34.0783 14.0983 29.8667 19.2733 29.8667C24.4484 29.8667 28.66 34.0783 28.66 39.2534C28.66 44.4284 24.4484 48.64 19.2733 48.64ZM19.2733 33.28C15.9799 33.28 13.3 35.9599 13.3 39.2534C13.3 42.5468 15.9799 45.2267 19.2733 45.2267C22.5668 45.2267 25.2467 42.5468 25.2467 39.2534C25.2467 35.9599 22.5668 33.28 19.2733 33.28Z" fill="#D53232"/>
<path d="M59.38 111.787C58.4367 111.787 57.6733 111.023 57.6733 110.08V101.547C57.6733 101.453 57.6819 101.359 57.6968 101.267L59.0715 93.0134H52.5533V110.08C52.5533 111.023 51.79 111.787 50.8467 111.787C49.9033 111.787 49.14 111.023 49.14 110.08V91.3068C49.14 90.3634 49.9033 89.6001 50.8467 89.6001H61.0867C61.5884 89.6001 62.065 89.8203 62.3884 90.2034C62.7136 90.5866 62.8535 91.0917 62.7703 91.5867L61.0867 101.688V110.08C61.0867 111.023 60.3234 111.787 59.38 111.787Z" fill="#D53232"/>
<path d="M78.1533 111.787C77.21 111.787 76.4467 111.023 76.4467 110.08V93.0134H69.9285L71.3036 101.267C71.3181 101.359 71.3267 101.453 71.3267 101.547V110.08C71.3267 111.023 70.5634 111.787 69.62 111.787C68.6766 111.787 67.9133 111.023 67.9133 110.08V101.688L66.2301 91.5867C66.1469 91.0917 66.2869 90.5866 66.612 90.2034C66.9354 89.8203 67.412 89.6001 67.9138 89.6001H78.1538C79.0971 89.6001 79.8604 90.3634 79.8604 91.3068V110.08C79.86 111.023 79.0967 111.787 78.1533 111.787Z" fill="#D53232"/>
</svg>
