<svg width="129" height="128" viewBox="0 0 129 128" fill="none" xmlns="http://www.w3.org/2000/svg">
<path d="M102.046 25.5991C102.989 25.5991 103.753 24.835 103.753 23.8925C103.753 22.9499 102.989 22.1858 102.046 22.1858C101.104 22.1858 100.34 22.9499 100.34 23.8925C100.34 24.835 101.104 25.5991 102.046 25.5991Z" fill="#D53232"/>
<path d="M21.4818 108.372C21.0454 108.372 20.6085 108.206 20.2752 107.872C19.6088 107.206 19.6088 106.126 20.2752 105.459L25.3952 100.339C26.0617 99.6727 27.142 99.6727 27.8085 100.339C28.4749 101.006 28.4749 102.086 27.8085 102.752L22.6885 107.872C22.3552 108.206 21.9183 108.372 21.4818 108.372Z" fill="#D53232"/>
<path d="M26.6018 108.372C26.1654 108.372 25.7285 108.206 25.3952 107.872L20.2752 102.752C19.6088 102.086 19.6088 101.006 20.2752 100.339C20.9417 99.6727 22.022 99.6727 22.6885 100.339L27.8085 105.459C28.4749 106.126 28.4749 107.206 27.8085 107.872C27.4752 108.206 27.0383 108.372 26.6018 108.372Z" fill="#D53232"/>
<path d="M113.993 44.3733C113.317 44.3733 112.675 43.9666 112.408 43.2998C109.966 37.1946 98.5565 35.8438 94.365 35.8391C93.9131 35.8382 93.4801 35.659 93.16 35.339C85.1199 27.2998 79.4402 25.5474 79.3834 25.5308C78.4819 25.2641 77.9635 24.3182 78.225 23.4167C78.4883 22.5134 79.4265 21.9916 80.3285 22.2519C80.5853 22.3253 86.5966 24.1117 95.0835 32.4402C98.4349 32.552 112.177 33.5304 115.578 42.0317C115.928 42.9077 115.502 43.9001 114.627 44.2508C114.42 44.3332 114.205 44.3733 113.993 44.3733Z" fill="#D53232"/>
<path d="M80.7582 29.6384C79.9864 29.6384 79.2883 29.1127 79.0997 28.3302L76.4932 17.4643C76.2731 16.5478 76.8384 15.6258 77.7549 15.4069C78.6701 15.1868 79.5934 15.7521 79.8131 16.6677L82.4201 27.5332C82.6402 28.4497 82.0749 29.3717 81.1584 29.5915C81.0249 29.6235 80.89 29.6384 80.7582 29.6384Z" fill="#D53232"/>
<path d="M48.1067 29.7519C47.9702 29.7519 47.8302 29.7361 47.6915 29.7011C46.7763 29.4728 46.22 28.5461 46.4499 27.6318L49.1917 16.6528C49.4183 15.7376 50.3416 15.1752 51.2602 15.4103C52.1754 15.6386 52.7318 16.5653 52.5018 17.4796L49.76 28.4586C49.5667 29.2343 48.8717 29.7519 48.1067 29.7519Z" fill="#D53232"/>
<path d="M15.0067 44.3733C14.7951 44.3733 14.58 44.3332 14.3735 44.2508C13.4984 43.9001 13.0718 42.9077 13.4221 42.0318C16.8354 33.5018 31.3186 32.5452 34.7703 32.4394C43.2004 24.1378 48.3802 22.3471 48.6003 22.2737C49.5036 21.972 50.4602 22.4597 50.7588 23.3527C51.0571 24.247 50.5736 25.2134 49.6806 25.5121C49.6422 25.5253 44.7424 27.2913 36.6938 35.3395C36.3738 35.6595 35.9403 35.8387 35.4888 35.8395C31.0605 35.8447 19.034 37.1938 16.5922 43.3002C16.3251 43.9667 15.6834 44.3733 15.0067 44.3733Z" fill="#D53232"/>
<path d="M38.5484 112.643C37.6051 112.643 36.8418 111.879 36.8418 110.937V102.813L33.1182 95.4982C28.2466 86.8215 27.0131 75.7414 26.9631 75.2742C26.8633 74.3376 27.54 73.4967 28.4765 73.396C29.448 73.2983 30.2549 73.9741 30.3564 74.9102C30.3679 75.0177 31.5733 85.7736 36.1279 93.8892L40.0695 101.629C40.1911 101.869 40.2547 102.135 40.2547 102.403V110.937C40.2551 111.879 39.4918 112.643 38.5484 112.643Z" fill="#D53232"/>
<path d="M89.7484 112.643C88.8051 112.643 88.0417 111.879 88.0417 110.937V102.403C88.0417 102.086 88.1301 101.774 88.2986 101.504L93.0602 93.8252C97.6251 85.6878 100.003 74.8454 100.027 74.7362C100.227 73.8154 101.135 73.2352 102.055 73.4289C102.977 73.6281 103.562 74.5365 103.363 75.4572C103.264 75.9206 100.858 86.9021 95.9982 95.5596L91.4551 102.89V110.937C91.4551 111.879 90.6918 112.643 89.7484 112.643Z" fill="#D53232"/>
<path d="M42.3133 93.8657C41.8769 93.8657 41.4399 93.6989 41.1067 93.3657C40.4066 92.6655 34.8334 86.9047 35.2315 81.4105C32.878 80.6305 28.6348 78.8573 27.1334 75.8553C26.7118 75.0117 27.0532 73.9869 27.8967 73.5654C28.7402 73.1438 29.7634 73.4847 30.1866 74.3287C31.2934 76.5422 36.0332 78.1627 37.6068 78.5561C38.0684 78.6713 38.4601 78.9738 38.6901 79.3902C38.9184 79.8079 38.9636 80.3003 38.8117 80.7517C37.6917 84.1143 41.9434 89.3742 43.52 90.9516C44.1864 91.618 44.1864 92.6984 43.52 93.3648C43.1867 93.6993 42.7498 93.8657 42.3133 93.8657Z" fill="#D53232"/>
<path d="M86.6885 93.8658C86.252 93.8658 85.8151 93.699 85.4819 93.3666C84.8154 92.7006 84.8137 91.6207 85.4785 90.9534C87.1685 89.2565 91.3101 84.1178 90.1884 80.7527C90.0335 80.2901 90.0852 79.7841 90.3267 79.3626C90.5699 78.9402 90.9816 78.6419 91.4582 78.5417C94.5217 77.9008 99.25 76.1715 100.168 74.3334C100.591 73.4899 101.615 73.1503 102.458 73.5701C103.302 73.9917 103.643 75.017 103.221 75.8601C101.656 78.9909 96.5679 80.745 93.7746 81.4942C94.1112 86.9624 88.5897 92.669 87.893 93.3658C87.5602 93.6994 87.1233 93.8658 86.6885 93.8658Z" fill="#D53232"/>
<path d="M64.1484 103.252C63.2051 103.252 62.4418 102.488 62.4418 101.546V77.6525C62.4418 76.71 63.2051 75.9458 64.1484 75.9458C65.0918 75.9458 65.8551 76.71 65.8551 77.6525V101.546C65.8551 102.488 65.0918 103.252 64.1484 103.252Z" fill="#D53232"/>
<path d="M67.5618 74.2391C66.6184 74.2391 65.8551 73.475 65.8551 72.5325C65.8551 71.5917 65.0901 70.8258 64.1484 70.8258C63.2068 70.8258 62.4418 71.5917 62.4418 72.5325C62.4418 73.475 61.6785 74.2391 60.7351 74.2391C59.7917 74.2391 59.0284 73.475 59.0284 72.5325C59.0284 69.7092 61.3252 67.4125 64.1484 67.4125C66.9717 67.4125 69.2684 69.7092 69.2684 72.5325C69.2684 73.475 68.5051 74.2391 67.5618 74.2391Z" fill="#D53232"/>
<path d="M67.5618 65.7058C66.6184 65.7058 65.8551 64.9417 65.8551 63.9991C65.8551 63.0583 65.0901 62.2925 64.1484 62.2925C63.2068 62.2925 62.4418 63.0583 62.4418 63.9991C62.4418 64.9417 61.6785 65.7058 60.7351 65.7058C59.7917 65.7058 59.0284 64.9417 59.0284 63.9991C59.0284 61.1759 61.3252 58.8792 64.1484 58.8792C66.9717 58.8792 69.2684 61.1759 69.2684 63.9991C69.2684 64.9417 68.5051 65.7058 67.5618 65.7058Z" fill="#D53232"/>
<path d="M67.5618 57.1725C66.6184 57.1725 65.8551 56.4083 65.8551 55.4658C65.8551 54.525 65.0901 53.7592 64.1484 53.7592C63.2068 53.7592 62.4418 54.525 62.4418 55.4658C62.4418 56.4083 61.6785 57.1725 60.7351 57.1725C59.7917 57.1725 59.0284 56.4083 59.0284 55.4658C59.0284 52.6426 61.3252 50.3458 64.1484 50.3458C66.9717 50.3458 69.2684 52.6426 69.2684 55.4658C69.2684 56.4083 68.5051 57.1725 67.5618 57.1725Z" fill="#D53232"/>
<path d="M49.3001 52.5674C48.5449 52.5674 47.7619 52.5175 46.95 52.4125C46.0152 52.2918 45.3551 51.4359 45.475 50.5011C45.5966 49.5684 46.4516 48.9028 47.3865 49.0278C58.9013 50.5096 62.3599 38.461 62.5033 37.9468C62.7533 37.0419 63.6834 36.5026 64.5999 36.7551C65.5083 37.0052 66.0416 37.94 65.795 38.8484C64.4399 43.819 59.3169 52.5674 49.3001 52.5674Z" fill="#D53232"/>
<path d="M64.1484 34.9857C63.2051 34.9857 62.4418 34.2216 62.4418 33.2791V28.1591C62.4418 27.2166 63.2051 26.4524 64.1484 26.4524C65.0918 26.4524 65.8551 27.2166 65.8551 28.1591V33.2791C65.8551 34.2216 65.0918 34.9857 64.1484 34.9857Z" fill="#D53232"/>
<path d="M78.9969 52.5674C68.98 52.5674 63.857 43.819 62.5019 38.8484C62.2536 37.9391 62.7904 37.0009 63.7004 36.7526C64.5973 36.5068 65.5453 37.0385 65.7937 37.9468C65.937 38.461 69.3653 50.5075 80.9105 49.0278C81.8423 48.8951 82.7003 49.5679 82.8219 50.5011C82.9418 51.4359 82.2818 52.2918 81.3469 52.4125C80.535 52.5175 79.7516 52.5674 78.9969 52.5674Z" fill="#D53232"/>
</svg>
