<svg width="129" height="128" viewBox="0 0 129 128" fill="none" xmlns="http://www.w3.org/2000/svg">
<path d="M86.8657 113.28H28.1077C25.0156 113.28 22.5 110.764 22.5 107.672V21.6077C22.5 18.5156 25.0156 16 28.1077 16H86.8661C89.9577 16 92.4733 18.5156 92.4733 21.6077V107.673C92.4733 110.764 89.9577 113.28 86.8657 113.28ZM28.1077 19.4133C26.8977 19.4133 25.9133 20.3977 25.9133 21.6077V107.673C25.9133 108.883 26.8977 109.867 28.1077 109.867H86.8661C88.0761 109.867 89.0604 108.883 89.0604 107.673V21.6077C89.0604 20.3977 88.0761 19.4133 86.8661 19.4133H28.1077Z" fill="#D53232"/>
<path d="M107.833 92.8C107.397 92.8 106.96 92.6331 106.627 92.2999L101.507 87.1799C100.84 86.5135 100.84 85.4331 101.507 84.7667C102.173 84.1002 103.253 84.1002 103.92 84.7667L109.04 89.8867C109.706 90.5531 109.706 91.6335 109.04 92.2999C108.707 92.6331 108.27 92.8 107.833 92.8Z" fill="#D53232"/>
<path d="M102.713 92.8C102.277 92.8 101.84 92.6331 101.507 92.2999C100.84 91.6335 100.84 90.5531 101.507 89.8867L106.627 84.7667C107.293 84.1002 108.373 84.1002 109.04 84.7667C109.706 85.4331 109.706 86.5135 109.04 87.1799L103.92 92.2999C103.587 92.6331 103.15 92.8 102.713 92.8Z" fill="#D53232"/>
<path d="M75.9916 108.16H29.3267C28.3842 108.16 27.62 107.396 27.62 106.453V22.8267C27.62 21.8842 28.3842 21.12 29.3267 21.12H85.6467C86.5892 21.12 87.3533 21.8842 87.3533 22.8267V49.6482C87.3533 50.5907 86.5892 51.3549 85.6467 51.3549C84.7042 51.3549 83.94 50.5907 83.94 49.6482V24.5333H31.0333V104.747H75.355L83.94 97.3107V58.0672C83.94 57.1247 84.7042 56.3605 85.6467 56.3605C86.5892 56.3605 87.3533 57.1247 87.3533 58.0672V98.0907C87.3533 98.5856 87.1383 99.0566 86.7641 99.3805L77.1091 107.743C76.7993 108.012 76.4025 108.16 75.9916 108.16Z" fill="#D53232"/>
<path d="M75.4066 108.16C75.1609 108.16 74.9142 108.107 74.6826 107.999C74.0835 107.718 73.7 107.116 73.7 106.453V97.92C73.7 96.9775 74.4641 96.2134 75.4066 96.2134H85.6466C86.3651 96.2134 87.0068 96.6635 87.2517 97.3394C87.4958 98.0152 87.291 98.7708 86.7393 99.2312L76.4993 107.765C76.1866 108.025 75.7983 108.16 75.4066 108.16ZM77.1133 99.6267V102.809L80.9324 99.6267H77.1133Z" fill="#D53232"/>
<path d="M54.9267 70.6133H39.5667C38.6241 70.6133 37.86 69.8491 37.86 68.9066C37.86 67.9641 38.6241 67.2 39.5667 67.2H54.9267C55.8692 67.2 56.6333 67.9641 56.6333 68.9066C56.6333 69.8491 55.8692 70.6133 54.9267 70.6133Z" fill="#D53232"/>
<path d="M65.1667 75.7333H39.5667C38.6241 75.7333 37.86 74.9691 37.86 74.0266C37.86 73.0841 38.6241 72.3199 39.5667 72.3199H65.1667C66.1092 72.3199 66.8733 73.0841 66.8733 74.0266C66.8733 74.9691 66.1092 75.7333 65.1667 75.7333Z" fill="#D53232"/>
<path d="M56.6333 85.9733H39.5667C38.6241 85.9733 37.86 85.2091 37.86 84.2666C37.86 83.3241 38.6241 82.5599 39.5667 82.5599H56.6333C57.5758 82.5599 58.34 83.3241 58.34 84.2666C58.34 85.2091 57.5758 85.9733 56.6333 85.9733Z" fill="#D53232"/>
<path d="M48.1 91.0933H39.5667C38.6241 91.0933 37.86 90.3291 37.86 89.3866C37.86 88.4441 38.6241 87.6799 39.5667 87.6799H48.1C49.0425 87.6799 49.8067 88.4441 49.8067 89.3866C49.8067 90.3291 49.0425 91.0933 48.1 91.0933Z" fill="#D53232"/>
<path d="M71.9933 91.0933H54.9266C53.9841 91.0933 53.22 90.3291 53.22 89.3866C53.22 88.4441 53.9841 87.6799 54.9266 87.6799H71.9933C72.9358 87.6799 73.7 88.4441 73.7 89.3866C73.7 90.3291 72.9358 91.0933 71.9933 91.0933Z" fill="#D53232"/>
<path d="M65.1667 96.2133H39.5667C38.6241 96.2133 37.86 95.4491 37.86 94.5066C37.86 93.5641 38.6241 92.7999 39.5667 92.7999H65.1667C66.1092 92.7999 66.8733 93.5641 66.8733 94.5066C66.8733 95.4491 66.1092 96.2133 65.1667 96.2133Z" fill="#D53232"/>
<path d="M68.58 29.6533H46.3933C45.6582 29.6533 45.0067 29.1831 44.7741 28.4868L41.3608 18.2468C41.1876 17.7259 41.275 17.1541 41.5959 16.7091C41.9167 16.2633 42.4317 16 42.98 16H71.9933C72.5416 16 73.0566 16.2633 73.3774 16.7091C73.6983 17.1541 73.7858 17.7259 73.6125 18.2468L70.1992 28.4868C69.9667 29.1831 69.3151 29.6533 68.58 29.6533ZM47.6234 26.24H67.3499L69.6258 19.4133H45.3476L47.6234 26.24Z" fill="#D53232"/>
<path d="M99.3 51.84H70.2866C69.3441 51.84 68.58 51.0758 68.58 50.1333V45.0133C68.58 44.0708 69.3441 43.3066 70.2866 43.3066H99.3C100.242 43.3066 101.007 44.0708 101.007 45.0133V50.1333C101.007 51.0758 100.242 51.84 99.3 51.84ZM71.9933 48.4266H97.5933V46.72H71.9933V48.4266Z" fill="#D53232"/>
<path d="M70.2866 60.3733H63.46C62.5175 60.3733 61.7533 59.6092 61.7533 58.6666V36.48C61.7533 35.5375 62.5175 34.7733 63.46 34.7733H70.2866C71.2291 34.7733 71.9933 35.5375 71.9933 36.48V58.6666C71.9933 59.6092 71.2291 60.3733 70.2866 60.3733ZM65.1666 56.96H68.58V38.1866H65.1666V56.96Z" fill="#D53232"/>
<path d="M106.127 60.3733H99.3001C98.3575 60.3733 97.5934 59.6092 97.5934 58.6666V36.48C97.5934 35.5375 98.3575 34.7733 99.3001 34.7733H106.127C107.069 34.7733 107.833 35.5375 107.833 36.48V58.6666C107.833 59.6092 107.069 60.3733 106.127 60.3733ZM101.007 56.96H104.42V38.1866H101.007V56.96Z" fill="#D53232"/>
<path d="M63.46 56.96H56.6333C55.6908 56.96 54.9266 56.1958 54.9266 55.2533V39.8933C54.9266 38.9508 55.6908 38.1866 56.6333 38.1866H63.46C64.4025 38.1866 65.1666 38.9508 65.1666 39.8933V55.2533C65.1666 56.1958 64.4025 56.96 63.46 56.96ZM58.34 53.5466H61.7533V41.6H58.34V53.5466Z" fill="#D53232"/>
<path d="M112.953 56.96H106.127C105.184 56.96 104.42 56.1958 104.42 55.2533V39.8933C104.42 38.9508 105.184 38.1866 106.127 38.1866H112.953C113.896 38.1866 114.66 38.9508 114.66 39.8933V55.2533C114.66 56.1958 113.896 56.96 112.953 56.96ZM107.833 53.5466H111.247V41.6H107.833V53.5466Z" fill="#D53232"/>
<path d="M42.98 55.2533C42.5299 55.2533 42.0951 55.0759 41.7734 54.7533L38.3601 51.34C37.6936 50.6735 37.6936 49.5932 38.3601 48.9267C39.0265 48.2603 40.1068 48.2603 40.7733 48.9267L42.6408 50.7943L46.6366 44.1353C47.1217 43.3255 48.1683 43.0643 48.9781 43.5503C49.7866 44.0354 50.0482 45.0837 49.5631 45.8919L44.4431 54.4252C44.173 54.8753 43.7096 55.177 43.1882 55.241C43.1191 55.2491 43.0491 55.2533 42.98 55.2533Z" fill="#D53232"/>
</svg>
