<svg width="129" height="128" viewBox="0 0 129 128" fill="none" xmlns="http://www.w3.org/2000/svg">
<path d="M85.9887 55.2581C86.9963 55.2581 87.8132 54.4413 87.8132 53.4337C87.8132 52.4261 86.9963 51.6093 85.9887 51.6093C84.9811 51.6093 84.1643 52.4261 84.1643 53.4337C84.1643 54.4413 84.9811 55.2581 85.9887 55.2581Z" fill="#D53232"/>
<path d="M98.8667 46.5468C98.4302 46.5468 97.9933 46.3799 97.6601 46.0467L92.0733 40.4599C91.4069 39.7935 91.4069 38.7132 92.0733 38.0467C92.7398 37.3803 93.8201 37.3803 94.4866 38.0467L100.073 43.6335C100.74 44.2999 100.74 45.3803 100.073 46.0467C99.7401 46.3799 99.3032 46.5468 98.8667 46.5468Z" fill="#D53232"/>
<path d="M93.2799 46.5468C92.8435 46.5468 92.4066 46.3799 92.0733 46.0467C91.4069 45.3803 91.4069 44.2999 92.0733 43.6335L97.6601 38.0467C98.3266 37.3803 99.4069 37.3803 100.073 38.0467C100.74 38.7132 100.74 39.7935 100.073 40.4599L94.4866 46.0467C94.1533 46.3799 93.7168 46.5468 93.2799 46.5468Z" fill="#D53232"/>
<path d="M84.9801 30.72C82.1569 30.72 79.8601 28.4232 79.8601 25.6C79.8601 22.7767 82.1569 20.48 84.9801 20.48C87.8034 20.48 90.1001 22.7767 90.1001 25.6C90.1001 28.4232 87.8034 30.72 84.9801 30.72ZM84.9801 23.8933C84.0385 23.8933 83.2734 24.6583 83.2734 25.6C83.2734 26.5416 84.0385 27.3066 84.9801 27.3066C85.9218 27.3066 86.6868 26.5416 86.6868 25.6C86.6868 24.6583 85.9218 23.8933 84.9801 23.8933Z" fill="#D53232"/>
<path d="M115.7 112.64H13.3001C12.3567 112.64 11.5934 111.877 11.5934 110.933C11.5934 109.99 12.3567 109.227 13.3001 109.227H115.7C116.643 109.227 117.407 109.99 117.407 110.933C117.407 111.877 116.643 112.64 115.7 112.64Z" fill="#D53232"/>
<path d="M47.4316 92.16C46.6432 92.16 45.9366 91.6118 45.7651 90.8118L30.6534 20.2949L19.8852 18.7567C18.9516 18.6236 18.3035 17.7583 18.4366 16.8252C18.5698 15.8934 19.4414 15.247 20.3682 15.3767L32.3148 17.0833C33.0231 17.1849 33.5914 17.7165 33.7416 18.415L49.1016 90.095C49.3 91.0166 48.7133 91.9249 47.7917 92.1216C47.6701 92.1485 47.5498 92.16 47.4316 92.16Z" fill="#D53232"/>
<path d="M62.7933 112.64H35.4867C34.5949 112.64 33.8534 111.953 33.7851 111.065L29.847 59.8652C29.8103 59.3903 29.9737 58.9235 30.2971 58.5737C30.6188 58.2255 31.0737 58.0271 31.549 58.0271H66.7323C67.2072 58.0271 67.6625 58.2255 67.9842 58.5737C68.3076 58.9235 68.471 59.3903 68.4343 59.8652L67.7725 68.4702C67.7009 69.4084 66.9043 70.1035 65.9392 70.0403C65.0009 69.9686 64.2973 69.1469 64.369 68.2069L64.8883 61.44H33.3917L37.0666 109.227H61.2134L63.5136 79.3216C63.5852 78.3834 64.3737 77.6781 65.3469 77.7515C66.2852 77.8231 66.9888 78.6449 66.9171 79.5849L64.4953 111.065C64.4266 111.954 63.6851 112.64 62.7933 112.64Z" fill="#D53232"/>
<path d="M66.7315 61.4401H31.5485C30.6568 61.4401 29.9152 60.7536 29.847 59.8653L28.6651 44.5053C28.6284 44.0304 28.7918 43.5636 29.1152 43.2137C29.4365 42.8651 29.8918 42.6667 30.3667 42.6667H67.9133C68.3882 42.6667 68.8435 42.8651 69.1652 43.2133C69.4886 43.5632 69.652 44.0299 69.6153 44.5048L68.4334 59.8648C68.3652 60.7536 67.6232 61.4401 66.7315 61.4401ZM33.1285 58.0267H65.1519L66.0701 46.0801H32.2099L33.1285 58.0267Z" fill="#D53232"/>
<path d="M81.5668 75.9535C80.6234 75.9535 79.8601 75.1902 79.8601 74.2469C79.8601 64.5952 85.8902 62.4734 86.1466 62.3885C87.0482 62.0869 88.0065 62.5737 88.3051 63.4667C88.6017 64.3533 88.1285 65.3116 87.2483 65.6184C87.0435 65.6952 83.2734 67.2184 83.2734 74.2469C83.2734 75.1902 82.5101 75.9535 81.5668 75.9535Z" fill="#D53232"/>
<path d="M85.6285 111.692C84.6754 111.692 83.7171 111.6 82.7583 111.413C82.3534 111.333 81.9566 111.238 81.5667 111.128C81.1767 111.238 80.7799 111.333 80.3767 111.413C70.9499 113.248 61.5001 105.74 59.3352 94.6569C58.2967 89.3436 59.0617 83.9936 61.4903 79.5934C63.9735 75.0951 67.8903 72.1182 72.5188 71.2133C75.5106 70.6283 78.6252 70.9799 81.5671 72.2317C84.5073 70.9799 87.6219 70.6283 90.6154 71.2133C95.2439 72.1182 99.1603 75.0951 101.644 79.5934C104.072 83.9932 104.837 89.3436 103.799 94.6586C101.853 104.612 94.0369 111.692 85.6285 111.692ZM81.5667 107.638C81.7433 107.638 81.9182 107.665 82.0885 107.72C82.5186 107.858 82.9619 107.975 83.4133 108.063C91.0033 109.535 98.6448 103.238 100.448 94.0032C101.333 89.475 100.697 84.9434 98.6551 81.2433C96.6685 77.6431 93.5799 75.27 89.9618 74.5634C87.4419 74.0668 84.7935 74.4452 82.3082 75.6416C81.838 75.8682 81.2949 75.8682 80.8247 75.6416C78.3381 74.4418 75.6863 74.0668 73.1711 74.5634C69.553 75.27 66.4644 77.6435 64.4778 81.2433C62.4362 84.9434 61.7996 89.475 62.6845 94.0015C64.488 103.237 72.1177 109.536 79.7213 108.063C80.1715 107.975 80.6148 107.858 81.0448 107.72C81.2151 107.665 81.39 107.638 81.5667 107.638Z" fill="#D53232"/>
<path d="M67.9133 89.6069C66.97 89.6069 66.2067 88.8436 66.2067 87.9002C66.2067 81.4469 71.5182 78.4137 74.3266 77.7119C75.2384 77.4819 76.1664 78.037 76.395 78.9535C76.6233 79.8652 76.0716 80.7903 75.1598 81.0202C74.9201 81.0834 69.62 82.5319 69.62 87.9002C69.62 88.8436 68.8567 89.6069 67.9133 89.6069Z" fill="#D53232"/>
</svg>
